%TF.GenerationSoftware,KiCad,Pcbnew,(6.0.9)*%
%TF.CreationDate,2022-12-08T14:47:13+01:00*%
%TF.ProjectId,UltraCIC-III,556c7472-6143-4494-932d-4949492e6b69,rev?*%
%TF.SameCoordinates,Original*%
%TF.FileFunction,Copper,L2,Bot*%
%TF.FilePolarity,Positive*%
%FSLAX46Y46*%
G04 Gerber Fmt 4.6, Leading zero omitted, Abs format (unit mm)*
G04 Created by KiCad (PCBNEW (6.0.9)) date 2022-12-08 14:47:13*
%MOMM*%
%LPD*%
G01*
G04 APERTURE LIST*
%TA.AperFunction,ComponentPad*%
%ADD10O,1.600000X1.600000*%
%TD*%
%TA.AperFunction,ComponentPad*%
%ADD11R,1.600000X1.600000*%
%TD*%
%TA.AperFunction,ComponentPad*%
%ADD12C,1.700000*%
%TD*%
%TA.AperFunction,ComponentPad*%
%ADD13O,1.700000X1.700000*%
%TD*%
%TA.AperFunction,ComponentPad*%
%ADD14R,1.700000X1.700000*%
%TD*%
G04 APERTURE END LIST*
D10*
%TO.P,U2,8,VCC*%
%TO.N,VCC*%
X104648000Y-68072000D03*
%TO.P,U2,7,PB2*%
%TO.N,PB2*%
X104648000Y-70612000D03*
%TO.P,U2,6,PB1*%
%TO.N,PB1*%
X104648000Y-73152000D03*
%TO.P,U2,5,AREF/PB0*%
%TO.N,PB0*%
X104648000Y-75692000D03*
%TO.P,U2,4,GND*%
%TO.N,GND*%
X97028000Y-75692000D03*
%TO.P,U2,3,XTAL2/PB4*%
%TO.N,unconnected-(U2-Pad3)*%
X97028000Y-73152000D03*
%TO.P,U2,2,XTAL1/PB3*%
%TO.N,PB3*%
X97028000Y-70612000D03*
D11*
%TO.P,U2,1,~{RESET}/PB5*%
%TO.N,PB5*%
X97028000Y-68072000D03*
%TD*%
D12*
%TO.P,J2,1,Pin_1*%
%TO.N,PB5*%
X104648000Y-85852000D03*
D13*
%TO.P,J2,2,Pin_2*%
%TO.N,unconnected-(J2-Pad2)*%
X104648000Y-83312000D03*
%TO.P,J2,3,Pin_3*%
%TO.N,PB3*%
X104648000Y-80772000D03*
%TO.P,J2,4,Pin_4*%
%TO.N,unconnected-(J2-Pad4)*%
X104648000Y-78232000D03*
%TO.P,J2,5,Pin_5*%
%TO.N,PB0*%
X104648000Y-75692000D03*
%TO.P,J2,6,Pin_6*%
%TO.N,PB1*%
X104648000Y-73152000D03*
%TO.P,J2,7,Pin_7*%
%TO.N,PB2*%
X104648000Y-70612000D03*
%TO.P,J2,8,Pin_8*%
%TO.N,VCC*%
X104648000Y-68072000D03*
%TD*%
%TO.P,J1,8,Pin_8*%
%TO.N,GND*%
X97028000Y-85852000D03*
%TO.P,J1,7,Pin_7*%
X97028000Y-83312000D03*
%TO.P,J1,6,Pin_6*%
X97028000Y-80772000D03*
%TO.P,J1,5,Pin_5*%
%TO.N,unconnected-(J1-Pad5)*%
X97028000Y-78232000D03*
%TO.P,J1,4,Pin_4*%
%TO.N,GND*%
X97028000Y-75692000D03*
%TO.P,J1,3,Pin_3*%
%TO.N,unconnected-(J1-Pad3)*%
X97028000Y-73152000D03*
%TO.P,J1,2,Pin_2*%
%TO.N,PB3*%
X97028000Y-70612000D03*
D14*
%TO.P,J1,1,Pin_1*%
%TO.N,PB5*%
X97028000Y-68072000D03*
%TD*%
%TA.AperFunction,Conductor*%
%TO.N,GND*%
G36*
X95997697Y-66947952D02*
G01*
X96016149Y-66992500D01*
X95998074Y-67036139D01*
X95994516Y-67038516D01*
X95991066Y-67043679D01*
X95941714Y-67117538D01*
X95941713Y-67117540D01*
X95938266Y-67122699D01*
X95923500Y-67196933D01*
X95923501Y-68947066D01*
X95924104Y-68950096D01*
X95924104Y-68950100D01*
X95937055Y-69015214D01*
X95938266Y-69021301D01*
X95994516Y-69105484D01*
X95999679Y-69108934D01*
X96073538Y-69158286D01*
X96073540Y-69158287D01*
X96078699Y-69161734D01*
X96084785Y-69162945D01*
X96084786Y-69162945D01*
X96104952Y-69166956D01*
X96152933Y-69176500D01*
X97027575Y-69176500D01*
X97903066Y-69176499D01*
X97906096Y-69175896D01*
X97906100Y-69175896D01*
X97971214Y-69162945D01*
X97971216Y-69162944D01*
X97977301Y-69161734D01*
X97993369Y-69150998D01*
X98056321Y-69108934D01*
X98061484Y-69105484D01*
X98100688Y-69046812D01*
X98114286Y-69026462D01*
X98114287Y-69026460D01*
X98117734Y-69021301D01*
X98132500Y-68947067D01*
X98132499Y-67196934D01*
X98131896Y-67193899D01*
X98118945Y-67128786D01*
X98118944Y-67128784D01*
X98117734Y-67122699D01*
X98090939Y-67082597D01*
X98064934Y-67043679D01*
X98061484Y-67038516D01*
X98057926Y-67036139D01*
X98039851Y-66992500D01*
X98058303Y-66947952D01*
X98102851Y-66929500D01*
X104200750Y-66929500D01*
X104245298Y-66947952D01*
X104263750Y-66992500D01*
X104245298Y-67037048D01*
X104222557Y-67051605D01*
X104170463Y-67070824D01*
X103996010Y-67174612D01*
X103843392Y-67308455D01*
X103717720Y-67467869D01*
X103623203Y-67647515D01*
X103622347Y-67650273D01*
X103622345Y-67650277D01*
X103614828Y-67674487D01*
X103563007Y-67841378D01*
X103539148Y-68042964D01*
X103552424Y-68245522D01*
X103553133Y-68248315D01*
X103553134Y-68248319D01*
X103574813Y-68333676D01*
X103602392Y-68442269D01*
X103687377Y-68626616D01*
X103804533Y-68792389D01*
X103949938Y-68934035D01*
X104025166Y-68984301D01*
X104088266Y-69026463D01*
X104118720Y-69046812D01*
X104121371Y-69047951D01*
X104210543Y-69086262D01*
X104305228Y-69126942D01*
X104503216Y-69171742D01*
X104506104Y-69171855D01*
X104506108Y-69171856D01*
X104604634Y-69175727D01*
X104706053Y-69179712D01*
X104906945Y-69150584D01*
X105099165Y-69085334D01*
X105204287Y-69026463D01*
X105273755Y-68987559D01*
X105273756Y-68987558D01*
X105276276Y-68986147D01*
X105319617Y-68950101D01*
X105430123Y-68858193D01*
X105432345Y-68856345D01*
X105562147Y-68700276D01*
X105661334Y-68523165D01*
X105726584Y-68330945D01*
X105755712Y-68130053D01*
X105757232Y-68072000D01*
X105738658Y-67869859D01*
X105729848Y-67838621D01*
X105684341Y-67677265D01*
X105684339Y-67677260D01*
X105683557Y-67674487D01*
X105593776Y-67492428D01*
X105472320Y-67329779D01*
X105323258Y-67191987D01*
X105151581Y-67083667D01*
X105148903Y-67082599D01*
X105148900Y-67082597D01*
X105069739Y-67051015D01*
X105035200Y-67017369D01*
X105034569Y-66969155D01*
X105068215Y-66934616D01*
X105093084Y-66929500D01*
X105854500Y-66929500D01*
X105899048Y-66947952D01*
X105917500Y-66992500D01*
X105917500Y-87058500D01*
X105899048Y-87103048D01*
X105854500Y-87121500D01*
X95821500Y-87121500D01*
X95776952Y-87103048D01*
X95758500Y-87058500D01*
X95758500Y-85992577D01*
X95930766Y-85992577D01*
X95932731Y-86022561D01*
X95933630Y-86028241D01*
X95982154Y-86219304D01*
X95984075Y-86224726D01*
X96066605Y-86403746D01*
X96069476Y-86408719D01*
X96183250Y-86569706D01*
X96186983Y-86574077D01*
X96328190Y-86711634D01*
X96332649Y-86715245D01*
X96496562Y-86824769D01*
X96501611Y-86827510D01*
X96682735Y-86905327D01*
X96688195Y-86907101D01*
X96880464Y-86950607D01*
X96886174Y-86951359D01*
X96888478Y-86951449D01*
X96896794Y-86948381D01*
X96901000Y-86938765D01*
X96901000Y-86936677D01*
X97155000Y-86936677D01*
X97158671Y-86945539D01*
X97164283Y-86947864D01*
X97283971Y-86930510D01*
X97289559Y-86929169D01*
X97476227Y-86865803D01*
X97481484Y-86863462D01*
X97653466Y-86767147D01*
X97658218Y-86763882D01*
X97809763Y-86637844D01*
X97813844Y-86633763D01*
X97939882Y-86482218D01*
X97943147Y-86477466D01*
X98039462Y-86305484D01*
X98041803Y-86300227D01*
X98105169Y-86113559D01*
X98106510Y-86107971D01*
X98123412Y-85991403D01*
X98121051Y-85982105D01*
X98115831Y-85979000D01*
X97167533Y-85979000D01*
X97158671Y-85982671D01*
X97155000Y-85991533D01*
X97155000Y-86936677D01*
X96901000Y-86936677D01*
X96901000Y-85991533D01*
X96897329Y-85982671D01*
X96888467Y-85979000D01*
X95942409Y-85979000D01*
X95934669Y-85982206D01*
X95930766Y-85992577D01*
X95758500Y-85992577D01*
X95758500Y-85822964D01*
X103539148Y-85822964D01*
X103552424Y-86025522D01*
X103553133Y-86028315D01*
X103553134Y-86028319D01*
X103574813Y-86113676D01*
X103602392Y-86222269D01*
X103687377Y-86406616D01*
X103804533Y-86572389D01*
X103949938Y-86714035D01*
X104118720Y-86826812D01*
X104121371Y-86827951D01*
X104210543Y-86866262D01*
X104305228Y-86906942D01*
X104503216Y-86951742D01*
X104506104Y-86951855D01*
X104506108Y-86951856D01*
X104604635Y-86955727D01*
X104706053Y-86959712D01*
X104906945Y-86930584D01*
X104911114Y-86929169D01*
X105096431Y-86866262D01*
X105096430Y-86866262D01*
X105099165Y-86865334D01*
X105276276Y-86766147D01*
X105279000Y-86763882D01*
X105430123Y-86638193D01*
X105432345Y-86636345D01*
X105487497Y-86570032D01*
X105560301Y-86482496D01*
X105560303Y-86482493D01*
X105562147Y-86480276D01*
X105661334Y-86303165D01*
X105726584Y-86110945D01*
X105755712Y-85910053D01*
X105757232Y-85852000D01*
X105738658Y-85649859D01*
X105729848Y-85618621D01*
X105684341Y-85457265D01*
X105684339Y-85457260D01*
X105683557Y-85454487D01*
X105593776Y-85272428D01*
X105472320Y-85109779D01*
X105323258Y-84971987D01*
X105151581Y-84863667D01*
X105148903Y-84862599D01*
X105148900Y-84862597D01*
X104965721Y-84789516D01*
X104963039Y-84788446D01*
X104960208Y-84787883D01*
X104960205Y-84787882D01*
X104766777Y-84749407D01*
X104766776Y-84749407D01*
X104763946Y-84748844D01*
X104761067Y-84748806D01*
X104761064Y-84748806D01*
X104642647Y-84747256D01*
X104560971Y-84746187D01*
X104445108Y-84766096D01*
X104363755Y-84780075D01*
X104363754Y-84780075D01*
X104360910Y-84780564D01*
X104358205Y-84781562D01*
X104358201Y-84781563D01*
X104276382Y-84811748D01*
X104170463Y-84850824D01*
X103996010Y-84954612D01*
X103843392Y-85088455D01*
X103717720Y-85247869D01*
X103623203Y-85427515D01*
X103622347Y-85430273D01*
X103622345Y-85430277D01*
X103614828Y-85454487D01*
X103563007Y-85621378D01*
X103539148Y-85822964D01*
X95758500Y-85822964D01*
X95758500Y-85712554D01*
X95932719Y-85712554D01*
X95935323Y-85721787D01*
X95941060Y-85725000D01*
X96888467Y-85725000D01*
X96897329Y-85721329D01*
X96901000Y-85712467D01*
X97155000Y-85712467D01*
X97158671Y-85721329D01*
X97167533Y-85725000D01*
X98112527Y-85725000D01*
X98121389Y-85721329D01*
X98124118Y-85714743D01*
X98118428Y-85652821D01*
X98117382Y-85647176D01*
X98063873Y-85457445D01*
X98061811Y-85452076D01*
X97974625Y-85275279D01*
X97971622Y-85270379D01*
X97853671Y-85112424D01*
X97849830Y-85108159D01*
X97705075Y-84974348D01*
X97700508Y-84970843D01*
X97533793Y-84865654D01*
X97528672Y-84863044D01*
X97345578Y-84789998D01*
X97340062Y-84788364D01*
X97167292Y-84753998D01*
X97157883Y-84755869D01*
X97155000Y-84760185D01*
X97155000Y-85712467D01*
X96901000Y-85712467D01*
X96901000Y-84766096D01*
X96897329Y-84757234D01*
X96892142Y-84755085D01*
X96743885Y-84780560D01*
X96738331Y-84782048D01*
X96553390Y-84850277D01*
X96548199Y-84852752D01*
X96378783Y-84953545D01*
X96374136Y-84956921D01*
X96225927Y-85086897D01*
X96221968Y-85091069D01*
X96099932Y-85245870D01*
X96096794Y-85250703D01*
X96005013Y-85425148D01*
X96002809Y-85430469D01*
X95944354Y-85618725D01*
X95943159Y-85624349D01*
X95932719Y-85712554D01*
X95758500Y-85712554D01*
X95758500Y-83452577D01*
X95930766Y-83452577D01*
X95932731Y-83482561D01*
X95933630Y-83488241D01*
X95982154Y-83679304D01*
X95984075Y-83684726D01*
X96066605Y-83863746D01*
X96069476Y-83868719D01*
X96183250Y-84029706D01*
X96186983Y-84034077D01*
X96328190Y-84171634D01*
X96332649Y-84175245D01*
X96496562Y-84284769D01*
X96501611Y-84287510D01*
X96682735Y-84365327D01*
X96688195Y-84367101D01*
X96880464Y-84410607D01*
X96886174Y-84411359D01*
X96888478Y-84411449D01*
X96896794Y-84408381D01*
X96901000Y-84398765D01*
X96901000Y-84396677D01*
X97155000Y-84396677D01*
X97158671Y-84405539D01*
X97164283Y-84407864D01*
X97283971Y-84390510D01*
X97289559Y-84389169D01*
X97476227Y-84325803D01*
X97481484Y-84323462D01*
X97653466Y-84227147D01*
X97658218Y-84223882D01*
X97809763Y-84097844D01*
X97813844Y-84093763D01*
X97939882Y-83942218D01*
X97943147Y-83937466D01*
X98039462Y-83765484D01*
X98041803Y-83760227D01*
X98105169Y-83573559D01*
X98106510Y-83567971D01*
X98123412Y-83451403D01*
X98121051Y-83442105D01*
X98115831Y-83439000D01*
X97167533Y-83439000D01*
X97158671Y-83442671D01*
X97155000Y-83451533D01*
X97155000Y-84396677D01*
X96901000Y-84396677D01*
X96901000Y-83451533D01*
X96897329Y-83442671D01*
X96888467Y-83439000D01*
X95942409Y-83439000D01*
X95934669Y-83442206D01*
X95930766Y-83452577D01*
X95758500Y-83452577D01*
X95758500Y-83282964D01*
X103539148Y-83282964D01*
X103552424Y-83485522D01*
X103553133Y-83488315D01*
X103553134Y-83488319D01*
X103574813Y-83573676D01*
X103602392Y-83682269D01*
X103687377Y-83866616D01*
X103804533Y-84032389D01*
X103949938Y-84174035D01*
X104118720Y-84286812D01*
X104121371Y-84287951D01*
X104210543Y-84326262D01*
X104305228Y-84366942D01*
X104503216Y-84411742D01*
X104506104Y-84411855D01*
X104506108Y-84411856D01*
X104604635Y-84415727D01*
X104706053Y-84419712D01*
X104906945Y-84390584D01*
X104911114Y-84389169D01*
X105096431Y-84326262D01*
X105096430Y-84326262D01*
X105099165Y-84325334D01*
X105276276Y-84226147D01*
X105279000Y-84223882D01*
X105430123Y-84098193D01*
X105432345Y-84096345D01*
X105487497Y-84030032D01*
X105560301Y-83942496D01*
X105560303Y-83942493D01*
X105562147Y-83940276D01*
X105661334Y-83763165D01*
X105726584Y-83570945D01*
X105755712Y-83370053D01*
X105757232Y-83312000D01*
X105738658Y-83109859D01*
X105729848Y-83078621D01*
X105684341Y-82917265D01*
X105684339Y-82917260D01*
X105683557Y-82914487D01*
X105593776Y-82732428D01*
X105472320Y-82569779D01*
X105323258Y-82431987D01*
X105151581Y-82323667D01*
X105148903Y-82322599D01*
X105148900Y-82322597D01*
X104965721Y-82249516D01*
X104963039Y-82248446D01*
X104960208Y-82247883D01*
X104960205Y-82247882D01*
X104766777Y-82209407D01*
X104766776Y-82209407D01*
X104763946Y-82208844D01*
X104761067Y-82208806D01*
X104761064Y-82208806D01*
X104642647Y-82207256D01*
X104560971Y-82206187D01*
X104445108Y-82226096D01*
X104363755Y-82240075D01*
X104363754Y-82240075D01*
X104360910Y-82240564D01*
X104358205Y-82241562D01*
X104358201Y-82241563D01*
X104276382Y-82271748D01*
X104170463Y-82310824D01*
X103996010Y-82414612D01*
X103843392Y-82548455D01*
X103717720Y-82707869D01*
X103623203Y-82887515D01*
X103622347Y-82890273D01*
X103622345Y-82890277D01*
X103614828Y-82914487D01*
X103563007Y-83081378D01*
X103539148Y-83282964D01*
X95758500Y-83282964D01*
X95758500Y-83172554D01*
X95932719Y-83172554D01*
X95935323Y-83181787D01*
X95941060Y-83185000D01*
X96888467Y-83185000D01*
X96897329Y-83181329D01*
X96901000Y-83172467D01*
X97155000Y-83172467D01*
X97158671Y-83181329D01*
X97167533Y-83185000D01*
X98112527Y-83185000D01*
X98121389Y-83181329D01*
X98124118Y-83174743D01*
X98118428Y-83112821D01*
X98117382Y-83107176D01*
X98063873Y-82917445D01*
X98061811Y-82912076D01*
X97974625Y-82735279D01*
X97971622Y-82730379D01*
X97853671Y-82572424D01*
X97849830Y-82568159D01*
X97705075Y-82434348D01*
X97700508Y-82430843D01*
X97533793Y-82325654D01*
X97528672Y-82323044D01*
X97345578Y-82249998D01*
X97340062Y-82248364D01*
X97167292Y-82213998D01*
X97157883Y-82215869D01*
X97155000Y-82220185D01*
X97155000Y-83172467D01*
X96901000Y-83172467D01*
X96901000Y-82226096D01*
X96897329Y-82217234D01*
X96892142Y-82215085D01*
X96743885Y-82240560D01*
X96738331Y-82242048D01*
X96553390Y-82310277D01*
X96548199Y-82312752D01*
X96378783Y-82413545D01*
X96374136Y-82416921D01*
X96225927Y-82546897D01*
X96221968Y-82551069D01*
X96099932Y-82705870D01*
X96096794Y-82710703D01*
X96005013Y-82885148D01*
X96002809Y-82890469D01*
X95944354Y-83078725D01*
X95943159Y-83084349D01*
X95932719Y-83172554D01*
X95758500Y-83172554D01*
X95758500Y-80912577D01*
X95930766Y-80912577D01*
X95932731Y-80942561D01*
X95933630Y-80948241D01*
X95982154Y-81139304D01*
X95984075Y-81144726D01*
X96066605Y-81323746D01*
X96069476Y-81328719D01*
X96183250Y-81489706D01*
X96186983Y-81494077D01*
X96328190Y-81631634D01*
X96332649Y-81635245D01*
X96496562Y-81744769D01*
X96501611Y-81747510D01*
X96682735Y-81825327D01*
X96688195Y-81827101D01*
X96880464Y-81870607D01*
X96886174Y-81871359D01*
X96888478Y-81871449D01*
X96896794Y-81868381D01*
X96901000Y-81858765D01*
X96901000Y-81856677D01*
X97155000Y-81856677D01*
X97158671Y-81865539D01*
X97164283Y-81867864D01*
X97283971Y-81850510D01*
X97289559Y-81849169D01*
X97476227Y-81785803D01*
X97481484Y-81783462D01*
X97653466Y-81687147D01*
X97658218Y-81683882D01*
X97809763Y-81557844D01*
X97813844Y-81553763D01*
X97939882Y-81402218D01*
X97943147Y-81397466D01*
X98039462Y-81225484D01*
X98041803Y-81220227D01*
X98105169Y-81033559D01*
X98106510Y-81027971D01*
X98123412Y-80911403D01*
X98121051Y-80902105D01*
X98115831Y-80899000D01*
X97167533Y-80899000D01*
X97158671Y-80902671D01*
X97155000Y-80911533D01*
X97155000Y-81856677D01*
X96901000Y-81856677D01*
X96901000Y-80911533D01*
X96897329Y-80902671D01*
X96888467Y-80899000D01*
X95942409Y-80899000D01*
X95934669Y-80902206D01*
X95930766Y-80912577D01*
X95758500Y-80912577D01*
X95758500Y-80742964D01*
X103539148Y-80742964D01*
X103552424Y-80945522D01*
X103553133Y-80948315D01*
X103553134Y-80948319D01*
X103574813Y-81033676D01*
X103602392Y-81142269D01*
X103687377Y-81326616D01*
X103804533Y-81492389D01*
X103949938Y-81634035D01*
X104118720Y-81746812D01*
X104121371Y-81747951D01*
X104210543Y-81786262D01*
X104305228Y-81826942D01*
X104503216Y-81871742D01*
X104506104Y-81871855D01*
X104506108Y-81871856D01*
X104604635Y-81875727D01*
X104706053Y-81879712D01*
X104906945Y-81850584D01*
X104911114Y-81849169D01*
X105096431Y-81786262D01*
X105096430Y-81786262D01*
X105099165Y-81785334D01*
X105276276Y-81686147D01*
X105279000Y-81683882D01*
X105430123Y-81558193D01*
X105432345Y-81556345D01*
X105487497Y-81490032D01*
X105560301Y-81402496D01*
X105560303Y-81402493D01*
X105562147Y-81400276D01*
X105661334Y-81223165D01*
X105726584Y-81030945D01*
X105755712Y-80830053D01*
X105757232Y-80772000D01*
X105738658Y-80569859D01*
X105729848Y-80538621D01*
X105684341Y-80377265D01*
X105684339Y-80377260D01*
X105683557Y-80374487D01*
X105593776Y-80192428D01*
X105472320Y-80029779D01*
X105323258Y-79891987D01*
X105151581Y-79783667D01*
X105148903Y-79782599D01*
X105148900Y-79782597D01*
X104965721Y-79709516D01*
X104963039Y-79708446D01*
X104960208Y-79707883D01*
X104960205Y-79707882D01*
X104766777Y-79669407D01*
X104766776Y-79669407D01*
X104763946Y-79668844D01*
X104761067Y-79668806D01*
X104761064Y-79668806D01*
X104642647Y-79667256D01*
X104560971Y-79666187D01*
X104445108Y-79686096D01*
X104363755Y-79700075D01*
X104363754Y-79700075D01*
X104360910Y-79700564D01*
X104358205Y-79701562D01*
X104358201Y-79701563D01*
X104276382Y-79731748D01*
X104170463Y-79770824D01*
X103996010Y-79874612D01*
X103843392Y-80008455D01*
X103717720Y-80167869D01*
X103623203Y-80347515D01*
X103622347Y-80350273D01*
X103622345Y-80350277D01*
X103614828Y-80374487D01*
X103563007Y-80541378D01*
X103539148Y-80742964D01*
X95758500Y-80742964D01*
X95758500Y-80632554D01*
X95932719Y-80632554D01*
X95935323Y-80641787D01*
X95941060Y-80645000D01*
X96888467Y-80645000D01*
X96897329Y-80641329D01*
X96901000Y-80632467D01*
X97155000Y-80632467D01*
X97158671Y-80641329D01*
X97167533Y-80645000D01*
X98112527Y-80645000D01*
X98121389Y-80641329D01*
X98124118Y-80634743D01*
X98118428Y-80572821D01*
X98117382Y-80567176D01*
X98063873Y-80377445D01*
X98061811Y-80372076D01*
X97974625Y-80195279D01*
X97971622Y-80190379D01*
X97853671Y-80032424D01*
X97849830Y-80028159D01*
X97705075Y-79894348D01*
X97700508Y-79890843D01*
X97533793Y-79785654D01*
X97528672Y-79783044D01*
X97345578Y-79709998D01*
X97340062Y-79708364D01*
X97167292Y-79673998D01*
X97157883Y-79675869D01*
X97155000Y-79680185D01*
X97155000Y-80632467D01*
X96901000Y-80632467D01*
X96901000Y-79686096D01*
X96897329Y-79677234D01*
X96892142Y-79675085D01*
X96743885Y-79700560D01*
X96738331Y-79702048D01*
X96553390Y-79770277D01*
X96548199Y-79772752D01*
X96378783Y-79873545D01*
X96374136Y-79876921D01*
X96225927Y-80006897D01*
X96221968Y-80011069D01*
X96099932Y-80165870D01*
X96096794Y-80170703D01*
X96005013Y-80345148D01*
X96002809Y-80350469D01*
X95944354Y-80538725D01*
X95943159Y-80544349D01*
X95932719Y-80632554D01*
X95758500Y-80632554D01*
X95758500Y-78202964D01*
X95919148Y-78202964D01*
X95932424Y-78405522D01*
X95933133Y-78408315D01*
X95933134Y-78408319D01*
X95954813Y-78493676D01*
X95982392Y-78602269D01*
X96067377Y-78786616D01*
X96184533Y-78952389D01*
X96329938Y-79094035D01*
X96498720Y-79206812D01*
X96501371Y-79207951D01*
X96590543Y-79246262D01*
X96685228Y-79286942D01*
X96883216Y-79331742D01*
X96886104Y-79331855D01*
X96886108Y-79331856D01*
X96984634Y-79335727D01*
X97086053Y-79339712D01*
X97286945Y-79310584D01*
X97479165Y-79245334D01*
X97656276Y-79146147D01*
X97718934Y-79094035D01*
X97810123Y-79018193D01*
X97812345Y-79016345D01*
X97942147Y-78860276D01*
X98041334Y-78683165D01*
X98106584Y-78490945D01*
X98135712Y-78290053D01*
X98137232Y-78232000D01*
X98134564Y-78202964D01*
X103539148Y-78202964D01*
X103552424Y-78405522D01*
X103553133Y-78408315D01*
X103553134Y-78408319D01*
X103574813Y-78493676D01*
X103602392Y-78602269D01*
X103687377Y-78786616D01*
X103804533Y-78952389D01*
X103949938Y-79094035D01*
X104118720Y-79206812D01*
X104121371Y-79207951D01*
X104210543Y-79246262D01*
X104305228Y-79286942D01*
X104503216Y-79331742D01*
X104506104Y-79331855D01*
X104506108Y-79331856D01*
X104604634Y-79335727D01*
X104706053Y-79339712D01*
X104906945Y-79310584D01*
X105099165Y-79245334D01*
X105276276Y-79146147D01*
X105338934Y-79094035D01*
X105430123Y-79018193D01*
X105432345Y-79016345D01*
X105562147Y-78860276D01*
X105661334Y-78683165D01*
X105726584Y-78490945D01*
X105755712Y-78290053D01*
X105757232Y-78232000D01*
X105738658Y-78029859D01*
X105729848Y-77998621D01*
X105684341Y-77837265D01*
X105684339Y-77837260D01*
X105683557Y-77834487D01*
X105593776Y-77652428D01*
X105472320Y-77489779D01*
X105323258Y-77351987D01*
X105151581Y-77243667D01*
X105148903Y-77242599D01*
X105148900Y-77242597D01*
X104965721Y-77169516D01*
X104963039Y-77168446D01*
X104960208Y-77167883D01*
X104960205Y-77167882D01*
X104766777Y-77129407D01*
X104766776Y-77129407D01*
X104763946Y-77128844D01*
X104761067Y-77128806D01*
X104761064Y-77128806D01*
X104642647Y-77127256D01*
X104560971Y-77126187D01*
X104427829Y-77149065D01*
X104363755Y-77160075D01*
X104363754Y-77160075D01*
X104360910Y-77160564D01*
X104358205Y-77161562D01*
X104358201Y-77161563D01*
X104276382Y-77191748D01*
X104170463Y-77230824D01*
X103996010Y-77334612D01*
X103843392Y-77468455D01*
X103717720Y-77627869D01*
X103623203Y-77807515D01*
X103622347Y-77810273D01*
X103622345Y-77810277D01*
X103614828Y-77834487D01*
X103563007Y-78001378D01*
X103539148Y-78202964D01*
X98134564Y-78202964D01*
X98118658Y-78029859D01*
X98109848Y-77998621D01*
X98064341Y-77837265D01*
X98064339Y-77837260D01*
X98063557Y-77834487D01*
X97973776Y-77652428D01*
X97852320Y-77489779D01*
X97703258Y-77351987D01*
X97531581Y-77243667D01*
X97528903Y-77242599D01*
X97528900Y-77242597D01*
X97345721Y-77169516D01*
X97343039Y-77168446D01*
X97340208Y-77167883D01*
X97340205Y-77167882D01*
X97146777Y-77129407D01*
X97146776Y-77129407D01*
X97143946Y-77128844D01*
X97141067Y-77128806D01*
X97141064Y-77128806D01*
X97022647Y-77127256D01*
X96940971Y-77126187D01*
X96807829Y-77149065D01*
X96743755Y-77160075D01*
X96743754Y-77160075D01*
X96740910Y-77160564D01*
X96738205Y-77161562D01*
X96738201Y-77161563D01*
X96656382Y-77191748D01*
X96550463Y-77230824D01*
X96376010Y-77334612D01*
X96223392Y-77468455D01*
X96097720Y-77627869D01*
X96003203Y-77807515D01*
X96002347Y-77810273D01*
X96002345Y-77810277D01*
X95994828Y-77834487D01*
X95943007Y-78001378D01*
X95919148Y-78202964D01*
X95758500Y-78202964D01*
X95758500Y-75832577D01*
X95930766Y-75832577D01*
X95932731Y-75862561D01*
X95933630Y-75868241D01*
X95982154Y-76059304D01*
X95984075Y-76064726D01*
X96066605Y-76243746D01*
X96069476Y-76248719D01*
X96183250Y-76409706D01*
X96186983Y-76414077D01*
X96328190Y-76551634D01*
X96332649Y-76555245D01*
X96496562Y-76664769D01*
X96501611Y-76667510D01*
X96682735Y-76745327D01*
X96688195Y-76747101D01*
X96880464Y-76790607D01*
X96886174Y-76791359D01*
X96888478Y-76791449D01*
X96896794Y-76788381D01*
X96901000Y-76778765D01*
X96901000Y-76776677D01*
X97155000Y-76776677D01*
X97158671Y-76785539D01*
X97164283Y-76787864D01*
X97283971Y-76770510D01*
X97289559Y-76769169D01*
X97476227Y-76705803D01*
X97481484Y-76703462D01*
X97653466Y-76607147D01*
X97658218Y-76603882D01*
X97809763Y-76477844D01*
X97813844Y-76473763D01*
X97939882Y-76322218D01*
X97943147Y-76317466D01*
X98039462Y-76145484D01*
X98041803Y-76140227D01*
X98105169Y-75953559D01*
X98106510Y-75947971D01*
X98123412Y-75831403D01*
X98121051Y-75822105D01*
X98115831Y-75819000D01*
X97167533Y-75819000D01*
X97158671Y-75822671D01*
X97155000Y-75831533D01*
X97155000Y-76776677D01*
X96901000Y-76776677D01*
X96901000Y-75831533D01*
X96897329Y-75822671D01*
X96888467Y-75819000D01*
X95942409Y-75819000D01*
X95934669Y-75822206D01*
X95930766Y-75832577D01*
X95758500Y-75832577D01*
X95758500Y-75662964D01*
X103539148Y-75662964D01*
X103552424Y-75865522D01*
X103553133Y-75868315D01*
X103553134Y-75868319D01*
X103574813Y-75953676D01*
X103602392Y-76062269D01*
X103687377Y-76246616D01*
X103804533Y-76412389D01*
X103949938Y-76554035D01*
X104118720Y-76666812D01*
X104121371Y-76667951D01*
X104210543Y-76706262D01*
X104305228Y-76746942D01*
X104503216Y-76791742D01*
X104506104Y-76791855D01*
X104506108Y-76791856D01*
X104604634Y-76795727D01*
X104706053Y-76799712D01*
X104906945Y-76770584D01*
X104911114Y-76769169D01*
X105096431Y-76706262D01*
X105096430Y-76706262D01*
X105099165Y-76705334D01*
X105276276Y-76606147D01*
X105279000Y-76603882D01*
X105430123Y-76478193D01*
X105432345Y-76476345D01*
X105487497Y-76410032D01*
X105560301Y-76322496D01*
X105560303Y-76322493D01*
X105562147Y-76320276D01*
X105661334Y-76143165D01*
X105726584Y-75950945D01*
X105755712Y-75750053D01*
X105757232Y-75692000D01*
X105738658Y-75489859D01*
X105729848Y-75458621D01*
X105684341Y-75297265D01*
X105684339Y-75297260D01*
X105683557Y-75294487D01*
X105593776Y-75112428D01*
X105472320Y-74949779D01*
X105323258Y-74811987D01*
X105151581Y-74703667D01*
X105148903Y-74702599D01*
X105148900Y-74702597D01*
X104965721Y-74629516D01*
X104963039Y-74628446D01*
X104960208Y-74627883D01*
X104960205Y-74627882D01*
X104766777Y-74589407D01*
X104766776Y-74589407D01*
X104763946Y-74588844D01*
X104761067Y-74588806D01*
X104761064Y-74588806D01*
X104642647Y-74587256D01*
X104560971Y-74586187D01*
X104445108Y-74606096D01*
X104363755Y-74620075D01*
X104363754Y-74620075D01*
X104360910Y-74620564D01*
X104358205Y-74621562D01*
X104358201Y-74621563D01*
X104276382Y-74651748D01*
X104170463Y-74690824D01*
X103996010Y-74794612D01*
X103843392Y-74928455D01*
X103717720Y-75087869D01*
X103623203Y-75267515D01*
X103622347Y-75270273D01*
X103622345Y-75270277D01*
X103614828Y-75294487D01*
X103563007Y-75461378D01*
X103539148Y-75662964D01*
X95758500Y-75662964D01*
X95758500Y-75552554D01*
X95932719Y-75552554D01*
X95935323Y-75561787D01*
X95941060Y-75565000D01*
X96888467Y-75565000D01*
X96897329Y-75561329D01*
X96901000Y-75552467D01*
X97155000Y-75552467D01*
X97158671Y-75561329D01*
X97167533Y-75565000D01*
X98112527Y-75565000D01*
X98121389Y-75561329D01*
X98124118Y-75554743D01*
X98118428Y-75492821D01*
X98117382Y-75487176D01*
X98063873Y-75297445D01*
X98061811Y-75292076D01*
X97974625Y-75115279D01*
X97971622Y-75110379D01*
X97853671Y-74952424D01*
X97849830Y-74948159D01*
X97705075Y-74814348D01*
X97700508Y-74810843D01*
X97533793Y-74705654D01*
X97528672Y-74703044D01*
X97345578Y-74629998D01*
X97340062Y-74628364D01*
X97167292Y-74593998D01*
X97157883Y-74595869D01*
X97155000Y-74600185D01*
X97155000Y-75552467D01*
X96901000Y-75552467D01*
X96901000Y-74606096D01*
X96897329Y-74597234D01*
X96892142Y-74595085D01*
X96743885Y-74620560D01*
X96738331Y-74622048D01*
X96553390Y-74690277D01*
X96548199Y-74692752D01*
X96378783Y-74793545D01*
X96374136Y-74796921D01*
X96225927Y-74926897D01*
X96221968Y-74931069D01*
X96099932Y-75085870D01*
X96096794Y-75090703D01*
X96005013Y-75265148D01*
X96002809Y-75270469D01*
X95944354Y-75458725D01*
X95943159Y-75464349D01*
X95932719Y-75552554D01*
X95758500Y-75552554D01*
X95758500Y-73122964D01*
X95919148Y-73122964D01*
X95932424Y-73325522D01*
X95933133Y-73328315D01*
X95933134Y-73328319D01*
X95954813Y-73413676D01*
X95982392Y-73522269D01*
X96067377Y-73706616D01*
X96184533Y-73872389D01*
X96329938Y-74014035D01*
X96498720Y-74126812D01*
X96501371Y-74127951D01*
X96590543Y-74166262D01*
X96685228Y-74206942D01*
X96883216Y-74251742D01*
X96886104Y-74251855D01*
X96886108Y-74251856D01*
X96984635Y-74255727D01*
X97086053Y-74259712D01*
X97286945Y-74230584D01*
X97479165Y-74165334D01*
X97656276Y-74066147D01*
X97718934Y-74014035D01*
X97810123Y-73938193D01*
X97812345Y-73936345D01*
X97942147Y-73780276D01*
X98041334Y-73603165D01*
X98106584Y-73410945D01*
X98135712Y-73210053D01*
X98137232Y-73152000D01*
X98134564Y-73122964D01*
X103539148Y-73122964D01*
X103552424Y-73325522D01*
X103553133Y-73328315D01*
X103553134Y-73328319D01*
X103574813Y-73413676D01*
X103602392Y-73522269D01*
X103687377Y-73706616D01*
X103804533Y-73872389D01*
X103949938Y-74014035D01*
X104118720Y-74126812D01*
X104121371Y-74127951D01*
X104210543Y-74166262D01*
X104305228Y-74206942D01*
X104503216Y-74251742D01*
X104506104Y-74251855D01*
X104506108Y-74251856D01*
X104604635Y-74255727D01*
X104706053Y-74259712D01*
X104906945Y-74230584D01*
X105099165Y-74165334D01*
X105276276Y-74066147D01*
X105338934Y-74014035D01*
X105430123Y-73938193D01*
X105432345Y-73936345D01*
X105562147Y-73780276D01*
X105661334Y-73603165D01*
X105726584Y-73410945D01*
X105755712Y-73210053D01*
X105757232Y-73152000D01*
X105738658Y-72949859D01*
X105729848Y-72918621D01*
X105684341Y-72757265D01*
X105684339Y-72757260D01*
X105683557Y-72754487D01*
X105593776Y-72572428D01*
X105472320Y-72409779D01*
X105323258Y-72271987D01*
X105151581Y-72163667D01*
X105148903Y-72162599D01*
X105148900Y-72162597D01*
X104965721Y-72089516D01*
X104963039Y-72088446D01*
X104960208Y-72087883D01*
X104960205Y-72087882D01*
X104766777Y-72049407D01*
X104766776Y-72049407D01*
X104763946Y-72048844D01*
X104761067Y-72048806D01*
X104761064Y-72048806D01*
X104642647Y-72047256D01*
X104560971Y-72046187D01*
X104427829Y-72069065D01*
X104363755Y-72080075D01*
X104363754Y-72080075D01*
X104360910Y-72080564D01*
X104358205Y-72081562D01*
X104358201Y-72081563D01*
X104276382Y-72111748D01*
X104170463Y-72150824D01*
X103996010Y-72254612D01*
X103843392Y-72388455D01*
X103717720Y-72547869D01*
X103623203Y-72727515D01*
X103622347Y-72730273D01*
X103622345Y-72730277D01*
X103614828Y-72754487D01*
X103563007Y-72921378D01*
X103539148Y-73122964D01*
X98134564Y-73122964D01*
X98118658Y-72949859D01*
X98109848Y-72918621D01*
X98064341Y-72757265D01*
X98064339Y-72757260D01*
X98063557Y-72754487D01*
X97973776Y-72572428D01*
X97852320Y-72409779D01*
X97703258Y-72271987D01*
X97531581Y-72163667D01*
X97528903Y-72162599D01*
X97528900Y-72162597D01*
X97345721Y-72089516D01*
X97343039Y-72088446D01*
X97340208Y-72087883D01*
X97340205Y-72087882D01*
X97146777Y-72049407D01*
X97146776Y-72049407D01*
X97143946Y-72048844D01*
X97141067Y-72048806D01*
X97141064Y-72048806D01*
X97022647Y-72047256D01*
X96940971Y-72046187D01*
X96807829Y-72069065D01*
X96743755Y-72080075D01*
X96743754Y-72080075D01*
X96740910Y-72080564D01*
X96738205Y-72081562D01*
X96738201Y-72081563D01*
X96656382Y-72111748D01*
X96550463Y-72150824D01*
X96376010Y-72254612D01*
X96223392Y-72388455D01*
X96097720Y-72547869D01*
X96003203Y-72727515D01*
X96002347Y-72730273D01*
X96002345Y-72730277D01*
X95994828Y-72754487D01*
X95943007Y-72921378D01*
X95919148Y-73122964D01*
X95758500Y-73122964D01*
X95758500Y-70582964D01*
X95919148Y-70582964D01*
X95932424Y-70785522D01*
X95933133Y-70788315D01*
X95933134Y-70788319D01*
X95954813Y-70873676D01*
X95982392Y-70982269D01*
X96067377Y-71166616D01*
X96184533Y-71332389D01*
X96329938Y-71474035D01*
X96498720Y-71586812D01*
X96501371Y-71587951D01*
X96590543Y-71626262D01*
X96685228Y-71666942D01*
X96883216Y-71711742D01*
X96886104Y-71711855D01*
X96886108Y-71711856D01*
X96984634Y-71715727D01*
X97086053Y-71719712D01*
X97286945Y-71690584D01*
X97479165Y-71625334D01*
X97656276Y-71526147D01*
X97718934Y-71474035D01*
X97810123Y-71398193D01*
X97812345Y-71396345D01*
X97942147Y-71240276D01*
X98041334Y-71063165D01*
X98106584Y-70870945D01*
X98135712Y-70670053D01*
X98137232Y-70612000D01*
X98134564Y-70582964D01*
X103539148Y-70582964D01*
X103552424Y-70785522D01*
X103553133Y-70788315D01*
X103553134Y-70788319D01*
X103574813Y-70873676D01*
X103602392Y-70982269D01*
X103687377Y-71166616D01*
X103804533Y-71332389D01*
X103949938Y-71474035D01*
X104118720Y-71586812D01*
X104121371Y-71587951D01*
X104210543Y-71626262D01*
X104305228Y-71666942D01*
X104503216Y-71711742D01*
X104506104Y-71711855D01*
X104506108Y-71711856D01*
X104604634Y-71715727D01*
X104706053Y-71719712D01*
X104906945Y-71690584D01*
X105099165Y-71625334D01*
X105276276Y-71526147D01*
X105338934Y-71474035D01*
X105430123Y-71398193D01*
X105432345Y-71396345D01*
X105562147Y-71240276D01*
X105661334Y-71063165D01*
X105726584Y-70870945D01*
X105755712Y-70670053D01*
X105757232Y-70612000D01*
X105738658Y-70409859D01*
X105729848Y-70378621D01*
X105684341Y-70217265D01*
X105684339Y-70217260D01*
X105683557Y-70214487D01*
X105593776Y-70032428D01*
X105472320Y-69869779D01*
X105323258Y-69731987D01*
X105151581Y-69623667D01*
X105148903Y-69622599D01*
X105148900Y-69622597D01*
X104965721Y-69549516D01*
X104963039Y-69548446D01*
X104960208Y-69547883D01*
X104960205Y-69547882D01*
X104766777Y-69509407D01*
X104766776Y-69509407D01*
X104763946Y-69508844D01*
X104761067Y-69508806D01*
X104761064Y-69508806D01*
X104642647Y-69507256D01*
X104560971Y-69506187D01*
X104427829Y-69529065D01*
X104363755Y-69540075D01*
X104363754Y-69540075D01*
X104360910Y-69540564D01*
X104358205Y-69541562D01*
X104358201Y-69541563D01*
X104276382Y-69571748D01*
X104170463Y-69610824D01*
X103996010Y-69714612D01*
X103843392Y-69848455D01*
X103717720Y-70007869D01*
X103623203Y-70187515D01*
X103622347Y-70190273D01*
X103622345Y-70190277D01*
X103614828Y-70214487D01*
X103563007Y-70381378D01*
X103539148Y-70582964D01*
X98134564Y-70582964D01*
X98118658Y-70409859D01*
X98109848Y-70378621D01*
X98064341Y-70217265D01*
X98064339Y-70217260D01*
X98063557Y-70214487D01*
X97973776Y-70032428D01*
X97852320Y-69869779D01*
X97703258Y-69731987D01*
X97531581Y-69623667D01*
X97528903Y-69622599D01*
X97528900Y-69622597D01*
X97345721Y-69549516D01*
X97343039Y-69548446D01*
X97340208Y-69547883D01*
X97340205Y-69547882D01*
X97146777Y-69509407D01*
X97146776Y-69509407D01*
X97143946Y-69508844D01*
X97141067Y-69508806D01*
X97141064Y-69508806D01*
X97022647Y-69507256D01*
X96940971Y-69506187D01*
X96807829Y-69529065D01*
X96743755Y-69540075D01*
X96743754Y-69540075D01*
X96740910Y-69540564D01*
X96738205Y-69541562D01*
X96738201Y-69541563D01*
X96656382Y-69571748D01*
X96550463Y-69610824D01*
X96376010Y-69714612D01*
X96223392Y-69848455D01*
X96097720Y-70007869D01*
X96003203Y-70187515D01*
X96002347Y-70190273D01*
X96002345Y-70190277D01*
X95994828Y-70214487D01*
X95943007Y-70381378D01*
X95919148Y-70582964D01*
X95758500Y-70582964D01*
X95758500Y-66992500D01*
X95776952Y-66947952D01*
X95821500Y-66929500D01*
X95953149Y-66929500D01*
X95997697Y-66947952D01*
G37*
%TD.AperFunction*%
%TD*%
M02*
