M48
; DRILL file {KiCad (6.0.9)} date Thu Dec  8 14:47:15 2022
; FORMAT={-:-/ absolute / metric / decimal}
; #@! TF.CreationDate,2022-12-08T14:47:15+01:00
; #@! TF.GenerationSoftware,Kicad,Pcbnew,(6.0.9)
; #@! TF.FileFunction,Plated,1,2,PTH
FMAT,2
METRIC
; #@! TA.AperFunction,Plated,PTH,ComponentDrill
T1C0.800
; #@! TA.AperFunction,Plated,PTH,ComponentDrill
T2C1.000
%
G90
G05
T1
X97.028Y-68.072
X97.028Y-70.612
X97.028Y-73.152
X97.028Y-75.692
X104.648Y-68.072
X104.648Y-70.612
X104.648Y-73.152
X104.648Y-75.692
T2
X97.028Y-68.072
X97.028Y-70.612
X97.028Y-73.152
X97.028Y-75.692
X97.028Y-78.232
X97.028Y-80.772
X97.028Y-83.312
X97.028Y-85.852
X104.648Y-68.072
X104.648Y-70.612
X104.648Y-73.152
X104.648Y-75.692
X104.648Y-78.232
X104.648Y-80.772
X104.648Y-83.312
X104.648Y-85.852
T0
M30
