%TF.GenerationSoftware,KiCad,Pcbnew,(6.0.9)*%
%TF.CreationDate,2022-12-08T14:47:13+01:00*%
%TF.ProjectId,UltraCIC-III,556c7472-6143-4494-932d-4949492e6b69,rev?*%
%TF.SameCoordinates,Original*%
%TF.FileFunction,Legend,Bot*%
%TF.FilePolarity,Positive*%
%FSLAX46Y46*%
G04 Gerber Fmt 4.6, Leading zero omitted, Abs format (unit mm)*
G04 Created by KiCad (PCBNEW (6.0.9)) date 2022-12-08 14:47:13*
%MOMM*%
%LPD*%
G01*
G04 APERTURE LIST*
%ADD10C,0.150000*%
%ADD11C,0.100000*%
%ADD12C,0.120000*%
G04 APERTURE END LIST*
D10*
X100076000Y-72644000D02*
X103124000Y-72644000D01*
X103124000Y-72644000D02*
X103124000Y-67056000D01*
X103124000Y-67056000D02*
X100076000Y-67056000D01*
X100076000Y-67056000D02*
X100076000Y-72644000D01*
X99156571Y-74836928D02*
X99156571Y-74503595D01*
X99680380Y-74503595D02*
X98680380Y-74503595D01*
X98680380Y-74979785D01*
X99013714Y-75789309D02*
X99680380Y-75789309D01*
X99013714Y-75360738D02*
X99537523Y-75360738D01*
X99632761Y-75408357D01*
X99680380Y-75503595D01*
X99680380Y-75646452D01*
X99632761Y-75741690D01*
X99585142Y-75789309D01*
X99632761Y-76217880D02*
X99680380Y-76313119D01*
X99680380Y-76503595D01*
X99632761Y-76598833D01*
X99537523Y-76646452D01*
X99489904Y-76646452D01*
X99394666Y-76598833D01*
X99347047Y-76503595D01*
X99347047Y-76360738D01*
X99299428Y-76265500D01*
X99204190Y-76217880D01*
X99156571Y-76217880D01*
X99061333Y-76265500D01*
X99013714Y-76360738D01*
X99013714Y-76503595D01*
X99061333Y-76598833D01*
X99632761Y-77455976D02*
X99680380Y-77360738D01*
X99680380Y-77170261D01*
X99632761Y-77075023D01*
X99537523Y-77027404D01*
X99156571Y-77027404D01*
X99061333Y-77075023D01*
X99013714Y-77170261D01*
X99013714Y-77360738D01*
X99061333Y-77455976D01*
X99156571Y-77503595D01*
X99251809Y-77503595D01*
X99347047Y-77027404D01*
X99632761Y-77884547D02*
X99680380Y-77979785D01*
X99680380Y-78170261D01*
X99632761Y-78265500D01*
X99537523Y-78313119D01*
X99489904Y-78313119D01*
X99394666Y-78265500D01*
X99347047Y-78170261D01*
X99347047Y-78027404D01*
X99299428Y-77932166D01*
X99204190Y-77884547D01*
X99156571Y-77884547D01*
X99061333Y-77932166D01*
X99013714Y-78027404D01*
X99013714Y-78170261D01*
X99061333Y-78265500D01*
X99585142Y-78741690D02*
X99632761Y-78789309D01*
X99680380Y-78741690D01*
X99632761Y-78694071D01*
X99585142Y-78741690D01*
X99680380Y-78741690D01*
X99061333Y-78741690D02*
X99108952Y-78789309D01*
X99156571Y-78741690D01*
X99108952Y-78694071D01*
X99061333Y-78741690D01*
X99156571Y-78741690D01*
X101290380Y-74503595D02*
X100290380Y-74503595D01*
X100766571Y-74503595D02*
X100766571Y-75075023D01*
X101290380Y-75075023D02*
X100290380Y-75075023D01*
X101195142Y-75551214D02*
X101242761Y-75598833D01*
X101290380Y-75551214D01*
X101242761Y-75503595D01*
X101195142Y-75551214D01*
X101290380Y-75551214D01*
X100671333Y-75551214D02*
X100718952Y-75598833D01*
X100766571Y-75551214D01*
X100718952Y-75503595D01*
X100671333Y-75551214D01*
X100766571Y-75551214D01*
X100290380Y-76979785D02*
X100290380Y-77075023D01*
X100338000Y-77170261D01*
X100385619Y-77217880D01*
X100480857Y-77265500D01*
X100671333Y-77313119D01*
X100909428Y-77313119D01*
X101099904Y-77265500D01*
X101195142Y-77217880D01*
X101242761Y-77170261D01*
X101290380Y-77075023D01*
X101290380Y-76979785D01*
X101242761Y-76884547D01*
X101195142Y-76836928D01*
X101099904Y-76789309D01*
X100909428Y-76741690D01*
X100671333Y-76741690D01*
X100480857Y-76789309D01*
X100385619Y-76836928D01*
X100338000Y-76884547D01*
X100290380Y-76979785D01*
X101290380Y-77646452D02*
X100623714Y-78170261D01*
X100623714Y-77646452D02*
X101290380Y-78170261D01*
X101290380Y-78551214D02*
X100290380Y-78551214D01*
X100290380Y-78789309D01*
X100338000Y-78932166D01*
X100433238Y-79027404D01*
X100528476Y-79075023D01*
X100718952Y-79122642D01*
X100861809Y-79122642D01*
X101052285Y-79075023D01*
X101147523Y-79027404D01*
X101242761Y-78932166D01*
X101290380Y-78789309D01*
X101290380Y-78551214D01*
X100766571Y-79884547D02*
X100766571Y-79551214D01*
X101290380Y-79551214D02*
X100290380Y-79551214D01*
X100290380Y-80027404D01*
X102900380Y-74979785D02*
X102900380Y-74503595D01*
X101900380Y-74503595D01*
X102805142Y-75313119D02*
X102852761Y-75360738D01*
X102900380Y-75313119D01*
X102852761Y-75265500D01*
X102805142Y-75313119D01*
X102900380Y-75313119D01*
X102281333Y-75313119D02*
X102328952Y-75360738D01*
X102376571Y-75313119D01*
X102328952Y-75265500D01*
X102281333Y-75313119D01*
X102376571Y-75313119D01*
X101900380Y-76741690D02*
X101900380Y-76836928D01*
X101948000Y-76932166D01*
X101995619Y-76979785D01*
X102090857Y-77027404D01*
X102281333Y-77075023D01*
X102519428Y-77075023D01*
X102709904Y-77027404D01*
X102805142Y-76979785D01*
X102852761Y-76932166D01*
X102900380Y-76836928D01*
X102900380Y-76741690D01*
X102852761Y-76646452D01*
X102805142Y-76598833D01*
X102709904Y-76551214D01*
X102519428Y-76503595D01*
X102281333Y-76503595D01*
X102090857Y-76551214D01*
X101995619Y-76598833D01*
X101948000Y-76646452D01*
X101900380Y-76741690D01*
X102900380Y-77408357D02*
X102233714Y-77932166D01*
X102233714Y-77408357D02*
X102900380Y-77932166D01*
X102805142Y-78884547D02*
X102852761Y-78836928D01*
X102900380Y-78694071D01*
X102900380Y-78598833D01*
X102852761Y-78455976D01*
X102757523Y-78360738D01*
X102662285Y-78313119D01*
X102471809Y-78265500D01*
X102328952Y-78265500D01*
X102138476Y-78313119D01*
X102043238Y-78360738D01*
X101948000Y-78455976D01*
X101900380Y-78598833D01*
X101900380Y-78694071D01*
X101948000Y-78836928D01*
X101995619Y-78884547D01*
X101900380Y-79503595D02*
X101900380Y-79598833D01*
X101948000Y-79694071D01*
X101995619Y-79741690D01*
X102090857Y-79789309D01*
X102281333Y-79836928D01*
X102519428Y-79836928D01*
X102709904Y-79789309D01*
X102805142Y-79741690D01*
X102852761Y-79694071D01*
X102900380Y-79598833D01*
X102900380Y-79503595D01*
X102852761Y-79408357D01*
X102805142Y-79360738D01*
X102709904Y-79313119D01*
X102519428Y-79265500D01*
X102281333Y-79265500D01*
X102090857Y-79313119D01*
X101995619Y-79360738D01*
X101948000Y-79408357D01*
X101900380Y-79503595D01*
X99187000Y-68326000D02*
X98806000Y-68072000D01*
X98806000Y-68072000D02*
X99187000Y-67818000D01*
X99568000Y-68072000D02*
X98806000Y-68072000D01*
X100076000Y-68072000D02*
X99568000Y-68072000D01*
X101199761Y-67820166D02*
X101247380Y-67724928D01*
X101247380Y-67534452D01*
X101199761Y-67439214D01*
X101152142Y-67391595D01*
X101056904Y-67343976D01*
X100771190Y-67343976D01*
X100675952Y-67391595D01*
X100628333Y-67439214D01*
X100580714Y-67534452D01*
X100580714Y-67724928D01*
X100628333Y-67820166D01*
X100580714Y-68677309D02*
X101247380Y-68677309D01*
X100580714Y-68248738D02*
X101104523Y-68248738D01*
X101199761Y-68296357D01*
X101247380Y-68391595D01*
X101247380Y-68534452D01*
X101199761Y-68629690D01*
X101152142Y-68677309D01*
X100580714Y-69010642D02*
X100580714Y-69391595D01*
X100247380Y-69153500D02*
X101104523Y-69153500D01*
X101199761Y-69201119D01*
X101247380Y-69296357D01*
X101247380Y-69391595D01*
X100580714Y-70343976D02*
X100580714Y-70724928D01*
X101247380Y-70486833D02*
X100390238Y-70486833D01*
X100295000Y-70534452D01*
X100247380Y-70629690D01*
X100247380Y-70724928D01*
X101247380Y-71201119D02*
X101199761Y-71105880D01*
X101152142Y-71058261D01*
X101056904Y-71010642D01*
X100771190Y-71010642D01*
X100675952Y-71058261D01*
X100628333Y-71105880D01*
X100580714Y-71201119D01*
X100580714Y-71343976D01*
X100628333Y-71439214D01*
X100675952Y-71486833D01*
X100771190Y-71534452D01*
X101056904Y-71534452D01*
X101152142Y-71486833D01*
X101199761Y-71439214D01*
X101247380Y-71343976D01*
X101247380Y-71201119D01*
X101247380Y-71963023D02*
X100580714Y-71963023D01*
X100771190Y-71963023D02*
X100675952Y-72010642D01*
X100628333Y-72058261D01*
X100580714Y-72153500D01*
X100580714Y-72248738D01*
X102857380Y-67391595D02*
X102190714Y-67391595D01*
X101857380Y-67391595D02*
X101905000Y-67343976D01*
X101952619Y-67391595D01*
X101905000Y-67439214D01*
X101857380Y-67391595D01*
X101952619Y-67391595D01*
X102190714Y-67867785D02*
X102857380Y-67867785D01*
X102285952Y-67867785D02*
X102238333Y-67915404D01*
X102190714Y-68010642D01*
X102190714Y-68153500D01*
X102238333Y-68248738D01*
X102333571Y-68296357D01*
X102857380Y-68296357D01*
X102809761Y-68724928D02*
X102857380Y-68820166D01*
X102857380Y-69010642D01*
X102809761Y-69105880D01*
X102714523Y-69153500D01*
X102666904Y-69153500D01*
X102571666Y-69105880D01*
X102524047Y-69010642D01*
X102524047Y-68867785D01*
X102476428Y-68772547D01*
X102381190Y-68724928D01*
X102333571Y-68724928D01*
X102238333Y-68772547D01*
X102190714Y-68867785D01*
X102190714Y-69010642D01*
X102238333Y-69105880D01*
X102190714Y-69439214D02*
X102190714Y-69820166D01*
X101857380Y-69582071D02*
X102714523Y-69582071D01*
X102809761Y-69629690D01*
X102857380Y-69724928D01*
X102857380Y-69820166D01*
X102857380Y-70582071D02*
X102333571Y-70582071D01*
X102238333Y-70534452D01*
X102190714Y-70439214D01*
X102190714Y-70248738D01*
X102238333Y-70153500D01*
X102809761Y-70582071D02*
X102857380Y-70486833D01*
X102857380Y-70248738D01*
X102809761Y-70153500D01*
X102714523Y-70105880D01*
X102619285Y-70105880D01*
X102524047Y-70153500D01*
X102476428Y-70248738D01*
X102476428Y-70486833D01*
X102428809Y-70582071D01*
X102857380Y-71201119D02*
X102809761Y-71105880D01*
X102714523Y-71058261D01*
X101857380Y-71058261D01*
X102857380Y-71724928D02*
X102809761Y-71629690D01*
X102714523Y-71582071D01*
X101857380Y-71582071D01*
D11*
X102455285Y-81038285D02*
X102955285Y-81216857D01*
X102455285Y-81395428D01*
X102276714Y-81645428D02*
X102241000Y-81681142D01*
X102205285Y-81752571D01*
X102205285Y-81931142D01*
X102241000Y-82002571D01*
X102276714Y-82038285D01*
X102348142Y-82074000D01*
X102419571Y-82074000D01*
X102526714Y-82038285D01*
X102955285Y-81609714D01*
X102955285Y-82074000D01*
X102205285Y-82538285D02*
X102205285Y-82609714D01*
X102241000Y-82681142D01*
X102276714Y-82716857D01*
X102348142Y-82752571D01*
X102491000Y-82788285D01*
X102669571Y-82788285D01*
X102812428Y-82752571D01*
X102883857Y-82716857D01*
X102919571Y-82681142D01*
X102955285Y-82609714D01*
X102955285Y-82538285D01*
X102919571Y-82466857D01*
X102883857Y-82431142D01*
X102812428Y-82395428D01*
X102669571Y-82359714D01*
X102491000Y-82359714D01*
X102348142Y-82395428D01*
X102276714Y-82431142D01*
X102241000Y-82466857D01*
X102205285Y-82538285D01*
X102276714Y-83074000D02*
X102241000Y-83109714D01*
X102205285Y-83181142D01*
X102205285Y-83359714D01*
X102241000Y-83431142D01*
X102276714Y-83466857D01*
X102348142Y-83502571D01*
X102419571Y-83502571D01*
X102526714Y-83466857D01*
X102955285Y-83038285D01*
X102955285Y-83502571D01*
X102276714Y-83788285D02*
X102241000Y-83824000D01*
X102205285Y-83895428D01*
X102205285Y-84074000D01*
X102241000Y-84145428D01*
X102276714Y-84181142D01*
X102348142Y-84216857D01*
X102419571Y-84216857D01*
X102526714Y-84181142D01*
X102955285Y-83752571D01*
X102955285Y-84216857D01*
X102955285Y-84931142D02*
X102955285Y-84502571D01*
X102955285Y-84716857D02*
X102205285Y-84716857D01*
X102312428Y-84645428D01*
X102383857Y-84574000D01*
X102419571Y-84502571D01*
X102276714Y-85216857D02*
X102241000Y-85252571D01*
X102205285Y-85324000D01*
X102205285Y-85502571D01*
X102241000Y-85574000D01*
X102276714Y-85609714D01*
X102348142Y-85645428D01*
X102419571Y-85645428D01*
X102526714Y-85609714D01*
X102955285Y-85181142D01*
X102955285Y-85645428D01*
X102205285Y-86109714D02*
X102205285Y-86181142D01*
X102241000Y-86252571D01*
X102276714Y-86288285D01*
X102348142Y-86324000D01*
X102491000Y-86359714D01*
X102669571Y-86359714D01*
X102812428Y-86324000D01*
X102883857Y-86288285D01*
X102919571Y-86252571D01*
X102955285Y-86181142D01*
X102955285Y-86109714D01*
X102919571Y-86038285D01*
X102883857Y-86002571D01*
X102812428Y-85966857D01*
X102669571Y-85931142D01*
X102491000Y-85931142D01*
X102348142Y-85966857D01*
X102276714Y-86002571D01*
X102241000Y-86038285D01*
X102205285Y-86109714D01*
X102526714Y-86788285D02*
X102491000Y-86716857D01*
X102455285Y-86681142D01*
X102383857Y-86645428D01*
X102348142Y-86645428D01*
X102276714Y-86681142D01*
X102241000Y-86716857D01*
X102205285Y-86788285D01*
X102205285Y-86931142D01*
X102241000Y-87002571D01*
X102276714Y-87038285D01*
X102348142Y-87074000D01*
X102383857Y-87074000D01*
X102455285Y-87038285D01*
X102491000Y-87002571D01*
X102526714Y-86931142D01*
X102526714Y-86788285D01*
X102562428Y-86716857D01*
X102598142Y-86681142D01*
X102669571Y-86645428D01*
X102812428Y-86645428D01*
X102883857Y-86681142D01*
X102919571Y-86716857D01*
X102955285Y-86788285D01*
X102955285Y-86931142D01*
X102919571Y-87002571D01*
X102883857Y-87038285D01*
X102812428Y-87074000D01*
X102669571Y-87074000D01*
X102598142Y-87038285D01*
X102562428Y-87002571D01*
X102526714Y-86931142D01*
D10*
%TO.C,J2*%
X104981333Y-87634380D02*
X104981333Y-88348666D01*
X105028952Y-88491523D01*
X105124190Y-88586761D01*
X105267047Y-88634380D01*
X105362285Y-88634380D01*
X104552761Y-87729619D02*
X104505142Y-87682000D01*
X104409904Y-87634380D01*
X104171809Y-87634380D01*
X104076571Y-87682000D01*
X104028952Y-87729619D01*
X103981333Y-87824857D01*
X103981333Y-87920095D01*
X104028952Y-88062952D01*
X104600380Y-88634380D01*
X103981333Y-88634380D01*
%TO.C,J1*%
X97361333Y-65194380D02*
X97361333Y-65908666D01*
X97408952Y-66051523D01*
X97504190Y-66146761D01*
X97647047Y-66194380D01*
X97742285Y-66194380D01*
X96361333Y-66194380D02*
X96932761Y-66194380D01*
X96647047Y-66194380D02*
X96647047Y-65194380D01*
X96742285Y-65337238D01*
X96837523Y-65432476D01*
X96932761Y-65480095D01*
D12*
%TO.C,J2*%
X103318000Y-85852000D02*
X103318000Y-87182000D01*
X103318000Y-87182000D02*
X104648000Y-87182000D01*
X103318000Y-66742000D02*
X105978000Y-66742000D01*
X103318000Y-84582000D02*
X105978000Y-84582000D01*
X103318000Y-84582000D02*
X103318000Y-66742000D01*
X105978000Y-84582000D02*
X105978000Y-66742000D01*
%TO.C,J1*%
X98358000Y-66742000D02*
X97028000Y-66742000D01*
X98358000Y-68072000D02*
X98358000Y-66742000D01*
X98358000Y-87182000D02*
X95698000Y-87182000D01*
X98358000Y-69342000D02*
X98358000Y-87182000D01*
X98358000Y-69342000D02*
X95698000Y-69342000D01*
X95698000Y-69342000D02*
X95698000Y-87182000D01*
%TD*%
M02*
