%TF.GenerationSoftware,KiCad,Pcbnew,(6.0.9)*%
%TF.CreationDate,2022-12-08T14:47:13+01:00*%
%TF.ProjectId,UltraCIC-III,556c7472-6143-4494-932d-4949492e6b69,rev?*%
%TF.SameCoordinates,Original*%
%TF.FileFunction,Copper,L1,Top*%
%TF.FilePolarity,Positive*%
%FSLAX46Y46*%
G04 Gerber Fmt 4.6, Leading zero omitted, Abs format (unit mm)*
G04 Created by KiCad (PCBNEW (6.0.9)) date 2022-12-08 14:47:13*
%MOMM*%
%LPD*%
G01*
G04 APERTURE LIST*
G04 Aperture macros list*
%AMRoundRect*
0 Rectangle with rounded corners*
0 $1 Rounding radius*
0 $2 $3 $4 $5 $6 $7 $8 $9 X,Y pos of 4 corners*
0 Add a 4 corners polygon primitive as box body*
4,1,4,$2,$3,$4,$5,$6,$7,$8,$9,$2,$3,0*
0 Add four circle primitives for the rounded corners*
1,1,$1+$1,$2,$3*
1,1,$1+$1,$4,$5*
1,1,$1+$1,$6,$7*
1,1,$1+$1,$8,$9*
0 Add four rect primitives between the rounded corners*
20,1,$1+$1,$2,$3,$4,$5,0*
20,1,$1+$1,$4,$5,$6,$7,0*
20,1,$1+$1,$6,$7,$8,$9,0*
20,1,$1+$1,$8,$9,$2,$3,0*%
G04 Aperture macros list end*
%TA.AperFunction,SMDPad,CuDef*%
%ADD10RoundRect,0.150000X0.150000X-1.350000X0.150000X1.350000X-0.150000X1.350000X-0.150000X-1.350000X0*%
%TD*%
%TA.AperFunction,ComponentPad*%
%ADD11O,1.600000X1.600000*%
%TD*%
%TA.AperFunction,ComponentPad*%
%ADD12R,1.600000X1.600000*%
%TD*%
%TA.AperFunction,ComponentPad*%
%ADD13C,1.700000*%
%TD*%
%TA.AperFunction,ComponentPad*%
%ADD14O,1.700000X1.700000*%
%TD*%
%TA.AperFunction,ComponentPad*%
%ADD15R,1.700000X1.700000*%
%TD*%
%TA.AperFunction,Conductor*%
%ADD16C,0.250000*%
%TD*%
G04 APERTURE END LIST*
D10*
%TO.P,U1,1,~{RESET}/PB5*%
%TO.N,PB5*%
X98948400Y-77068000D03*
%TO.P,U1,2,XTAL1/PB3*%
%TO.N,PB3*%
X100218400Y-77068000D03*
%TO.P,U1,3,XTAL2/PB4*%
%TO.N,unconnected-(U1-Pad3)*%
X101488400Y-77068000D03*
%TO.P,U1,4,GND*%
%TO.N,GND*%
X102758400Y-77068000D03*
%TO.P,U1,5,AREF/PB0*%
%TO.N,PB0*%
X102758400Y-71268000D03*
%TO.P,U1,6,PB1*%
%TO.N,PB1*%
X101488400Y-71268000D03*
%TO.P,U1,7,PB2*%
%TO.N,PB2*%
X100218400Y-71268000D03*
%TO.P,U1,8,VCC*%
%TO.N,VCC*%
X98948400Y-71268000D03*
%TD*%
D11*
%TO.P,U2,8,VCC*%
%TO.N,VCC*%
X104648000Y-68072000D03*
%TO.P,U2,7,PB2*%
%TO.N,PB2*%
X104648000Y-70612000D03*
%TO.P,U2,6,PB1*%
%TO.N,PB1*%
X104648000Y-73152000D03*
%TO.P,U2,5,AREF/PB0*%
%TO.N,PB0*%
X104648000Y-75692000D03*
%TO.P,U2,4,GND*%
%TO.N,GND*%
X97028000Y-75692000D03*
%TO.P,U2,3,XTAL2/PB4*%
%TO.N,unconnected-(U2-Pad3)*%
X97028000Y-73152000D03*
%TO.P,U2,2,XTAL1/PB3*%
%TO.N,PB3*%
X97028000Y-70612000D03*
D12*
%TO.P,U2,1,~{RESET}/PB5*%
%TO.N,PB5*%
X97028000Y-68072000D03*
%TD*%
D13*
%TO.P,J2,1,Pin_1*%
%TO.N,PB5*%
X104648000Y-85852000D03*
D14*
%TO.P,J2,2,Pin_2*%
%TO.N,unconnected-(J2-Pad2)*%
X104648000Y-83312000D03*
%TO.P,J2,3,Pin_3*%
%TO.N,PB3*%
X104648000Y-80772000D03*
%TO.P,J2,4,Pin_4*%
%TO.N,unconnected-(J2-Pad4)*%
X104648000Y-78232000D03*
%TO.P,J2,5,Pin_5*%
%TO.N,PB0*%
X104648000Y-75692000D03*
%TO.P,J2,6,Pin_6*%
%TO.N,PB1*%
X104648000Y-73152000D03*
%TO.P,J2,7,Pin_7*%
%TO.N,PB2*%
X104648000Y-70612000D03*
%TO.P,J2,8,Pin_8*%
%TO.N,VCC*%
X104648000Y-68072000D03*
%TD*%
%TO.P,J1,8,Pin_8*%
%TO.N,GND*%
X97028000Y-85852000D03*
%TO.P,J1,7,Pin_7*%
X97028000Y-83312000D03*
%TO.P,J1,6,Pin_6*%
X97028000Y-80772000D03*
%TO.P,J1,5,Pin_5*%
%TO.N,unconnected-(J1-Pad5)*%
X97028000Y-78232000D03*
%TO.P,J1,4,Pin_4*%
%TO.N,GND*%
X97028000Y-75692000D03*
%TO.P,J1,3,Pin_3*%
%TO.N,unconnected-(J1-Pad3)*%
X97028000Y-73152000D03*
%TO.P,J1,2,Pin_2*%
%TO.N,PB3*%
X97028000Y-70612000D03*
D15*
%TO.P,J1,1,Pin_1*%
%TO.N,PB5*%
X97028000Y-68072000D03*
%TD*%
D16*
%TO.N,PB5*%
X95853000Y-73882000D02*
X95853000Y-69247000D01*
X96393000Y-74422000D02*
X95853000Y-73882000D01*
X98948400Y-74564400D02*
X98806000Y-74422000D01*
X98948400Y-77068000D02*
X98948400Y-74564400D01*
X98806000Y-74422000D02*
X96393000Y-74422000D01*
X95853000Y-69247000D02*
X97028000Y-68072000D01*
%TO.N,VCC*%
X98948400Y-69230400D02*
X98948400Y-71268000D01*
X98933000Y-69215000D02*
X98948400Y-69230400D01*
X103886000Y-68834000D02*
X99314000Y-68834000D01*
X104648000Y-68072000D02*
X103886000Y-68834000D01*
X99314000Y-68834000D02*
X98933000Y-69215000D01*
%TO.N,PB0*%
X105537000Y-75692000D02*
X104648000Y-75692000D01*
X105822511Y-72294511D02*
X105822511Y-75406489D01*
X102870000Y-71882000D02*
X105410000Y-71882000D01*
X102758400Y-71770400D02*
X102870000Y-71882000D01*
X105410000Y-71882000D02*
X105822511Y-72294511D01*
X105822511Y-75406489D02*
X105537000Y-75692000D01*
X102758400Y-71268000D02*
X102758400Y-71770400D01*
%TO.N,PB3*%
X104648000Y-80772000D02*
X100584000Y-80772000D01*
X100584000Y-80772000D02*
X100218400Y-80406400D01*
X100218400Y-80406400D02*
X100218400Y-73548400D01*
X98669824Y-73279000D02*
X98298000Y-72907176D01*
X100218400Y-73548400D02*
X99949000Y-73279000D01*
X99949000Y-73279000D02*
X98669824Y-73279000D01*
X98298000Y-72907176D02*
X98298000Y-70993000D01*
X98298000Y-70993000D02*
X97917000Y-70612000D01*
X97917000Y-70612000D02*
X97028000Y-70612000D01*
%TO.N,PB1*%
X101600000Y-73152000D02*
X104648000Y-73152000D01*
X101488400Y-73040400D02*
X101600000Y-73152000D01*
X101488400Y-71268000D02*
X101488400Y-73040400D01*
%TO.N,PB2*%
X104648000Y-70612000D02*
X104648000Y-69596000D01*
%TO.N,GND*%
X102997000Y-79502000D02*
X102758400Y-79263400D01*
X97028000Y-85852000D02*
X98202511Y-87026511D01*
X98202511Y-87026511D02*
X105134499Y-87026511D01*
X105134499Y-87026511D02*
X105822511Y-86338499D01*
X105822511Y-86338499D02*
X105822511Y-80168511D01*
X105822511Y-80168511D02*
X105156000Y-79502000D01*
X105156000Y-79502000D02*
X102997000Y-79502000D01*
X102758400Y-79263400D02*
X102758400Y-77068000D01*
%TO.N,PB2*%
X104648000Y-69596000D02*
X104394000Y-69342000D01*
X104394000Y-69342000D02*
X100584000Y-69342000D01*
X100584000Y-69342000D02*
X100218400Y-69707600D01*
X100218400Y-69707600D02*
X100218400Y-71268000D01*
%TO.N,GND*%
X97028000Y-75692000D02*
X98283489Y-76947489D01*
X98171000Y-80772000D02*
X97028000Y-80772000D01*
X98283489Y-76947489D02*
X98283489Y-80659511D01*
X98283489Y-80659511D02*
X98171000Y-80772000D01*
%TO.N,PB5*%
X99314000Y-85852000D02*
X98933000Y-85471000D01*
X104648000Y-85852000D02*
X99314000Y-85852000D01*
X98933000Y-85471000D02*
X98933000Y-77818000D01*
%TO.N,GND*%
X97028000Y-83312000D02*
X97028000Y-85852000D01*
X97028000Y-80772000D02*
X97028000Y-83312000D01*
%TD*%
%TA.AperFunction,Conductor*%
%TO.N,GND*%
G36*
X100930765Y-69739952D02*
G01*
X100949217Y-69784500D01*
X100948441Y-69794355D01*
X100933900Y-69886166D01*
X100933900Y-72649834D01*
X100948902Y-72744555D01*
X101007074Y-72858723D01*
X101090448Y-72942097D01*
X101108900Y-72986645D01*
X101108900Y-72993183D01*
X101107489Y-73006441D01*
X101104080Y-73022276D01*
X101104692Y-73027447D01*
X101108463Y-73059307D01*
X101108900Y-73066712D01*
X101108900Y-73071924D01*
X101109327Y-73074488D01*
X101109327Y-73074490D01*
X101112315Y-73092441D01*
X101112733Y-73095380D01*
X101118930Y-73147741D01*
X101121186Y-73152439D01*
X101122281Y-73156207D01*
X101123541Y-73159887D01*
X101124396Y-73165026D01*
X101126870Y-73169611D01*
X101149438Y-73211437D01*
X101150786Y-73214082D01*
X101173619Y-73261632D01*
X101176168Y-73264664D01*
X101176170Y-73264667D01*
X101176338Y-73264867D01*
X101176347Y-73264877D01*
X101177214Y-73265908D01*
X101177435Y-73266129D01*
X101180083Y-73269266D01*
X101181916Y-73271629D01*
X101184390Y-73276214D01*
X101219912Y-73309050D01*
X101224859Y-73313623D01*
X101226643Y-73315337D01*
X101298265Y-73386959D01*
X101306643Y-73397333D01*
X101315429Y-73410940D01*
X101319521Y-73414166D01*
X101319522Y-73414167D01*
X101344713Y-73434026D01*
X101350259Y-73438953D01*
X101353944Y-73442638D01*
X101356054Y-73444146D01*
X101356060Y-73444151D01*
X101370872Y-73454736D01*
X101373232Y-73456507D01*
X101414647Y-73489156D01*
X101419562Y-73490882D01*
X101423000Y-73492772D01*
X101426497Y-73494485D01*
X101430734Y-73497513D01*
X101481306Y-73512638D01*
X101484077Y-73513539D01*
X101533851Y-73531018D01*
X101537949Y-73531373D01*
X101538061Y-73531383D01*
X101538069Y-73531383D01*
X101539416Y-73531500D01*
X101539734Y-73531500D01*
X101543812Y-73531845D01*
X101546788Y-73532221D01*
X101551778Y-73533713D01*
X101606857Y-73531549D01*
X101609330Y-73531500D01*
X103566319Y-73531500D01*
X103610867Y-73549952D01*
X103623532Y-73568125D01*
X103687377Y-73706616D01*
X103804533Y-73872389D01*
X103949938Y-74014035D01*
X104020774Y-74061366D01*
X104107448Y-74119280D01*
X104118720Y-74126812D01*
X104121371Y-74127951D01*
X104210543Y-74166262D01*
X104305228Y-74206942D01*
X104503216Y-74251742D01*
X104506104Y-74251855D01*
X104506108Y-74251856D01*
X104604635Y-74255727D01*
X104706053Y-74259712D01*
X104906945Y-74230584D01*
X105099165Y-74165334D01*
X105153246Y-74135047D01*
X105273755Y-74067559D01*
X105273756Y-74067558D01*
X105276276Y-74066147D01*
X105282025Y-74061366D01*
X105339726Y-74013376D01*
X105385775Y-73999077D01*
X105428448Y-74021528D01*
X105443011Y-74061813D01*
X105443011Y-74778655D01*
X105424559Y-74823203D01*
X105380011Y-74841655D01*
X105337247Y-74824918D01*
X105331874Y-74819952D01*
X105323258Y-74811987D01*
X105151581Y-74703667D01*
X105148903Y-74702599D01*
X105148900Y-74702597D01*
X104965721Y-74629516D01*
X104963039Y-74628446D01*
X104960208Y-74627883D01*
X104960205Y-74627882D01*
X104766777Y-74589407D01*
X104766776Y-74589407D01*
X104763946Y-74588844D01*
X104761067Y-74588806D01*
X104761064Y-74588806D01*
X104642647Y-74587256D01*
X104560971Y-74586187D01*
X104427829Y-74609065D01*
X104363755Y-74620075D01*
X104363754Y-74620075D01*
X104360910Y-74620564D01*
X104358205Y-74621562D01*
X104358201Y-74621563D01*
X104276382Y-74651748D01*
X104170463Y-74690824D01*
X103996010Y-74794612D01*
X103843392Y-74928455D01*
X103717720Y-75087869D01*
X103623203Y-75267515D01*
X103622347Y-75270273D01*
X103622345Y-75270277D01*
X103563863Y-75458621D01*
X103563007Y-75461378D01*
X103539148Y-75662964D01*
X103552424Y-75865522D01*
X103553133Y-75868315D01*
X103553134Y-75868319D01*
X103588300Y-76006781D01*
X103602392Y-76062269D01*
X103687377Y-76246616D01*
X103804533Y-76412389D01*
X103949938Y-76554035D01*
X104118720Y-76666812D01*
X104121371Y-76667951D01*
X104210543Y-76706262D01*
X104305228Y-76746942D01*
X104503216Y-76791742D01*
X104506104Y-76791855D01*
X104506108Y-76791856D01*
X104604634Y-76795727D01*
X104706053Y-76799712D01*
X104906945Y-76770584D01*
X104911114Y-76769169D01*
X105096431Y-76706262D01*
X105096430Y-76706262D01*
X105099165Y-76705334D01*
X105276276Y-76606147D01*
X105279000Y-76603882D01*
X105430123Y-76478193D01*
X105432345Y-76476345D01*
X105487497Y-76410032D01*
X105560301Y-76322496D01*
X105560303Y-76322493D01*
X105562147Y-76320276D01*
X105661334Y-76143165D01*
X105687904Y-76064893D01*
X105689263Y-76060889D01*
X105721649Y-76024348D01*
X105754658Y-76008497D01*
X105758232Y-76006781D01*
X105761264Y-76004232D01*
X105761267Y-76004230D01*
X105761467Y-76004062D01*
X105761477Y-76004053D01*
X105762508Y-76003186D01*
X105762729Y-76002965D01*
X105765866Y-76000317D01*
X105768229Y-75998484D01*
X105772814Y-75996010D01*
X105808239Y-75957687D01*
X105852026Y-75937501D01*
X105897264Y-75954189D01*
X105917500Y-76000452D01*
X105917500Y-87058500D01*
X105899048Y-87103048D01*
X105854500Y-87121500D01*
X95821500Y-87121500D01*
X95776952Y-87103048D01*
X95758500Y-87058500D01*
X95758500Y-85992577D01*
X95930766Y-85992577D01*
X95932731Y-86022561D01*
X95933630Y-86028241D01*
X95982154Y-86219304D01*
X95984075Y-86224726D01*
X96066605Y-86403746D01*
X96069476Y-86408719D01*
X96183250Y-86569706D01*
X96186983Y-86574077D01*
X96328190Y-86711634D01*
X96332649Y-86715245D01*
X96496562Y-86824769D01*
X96501611Y-86827510D01*
X96682735Y-86905327D01*
X96688195Y-86907101D01*
X96880464Y-86950607D01*
X96886174Y-86951359D01*
X96888478Y-86951449D01*
X96896794Y-86948381D01*
X96901000Y-86938765D01*
X96901000Y-86936677D01*
X97155000Y-86936677D01*
X97158671Y-86945539D01*
X97164283Y-86947864D01*
X97283971Y-86930510D01*
X97289559Y-86929169D01*
X97476227Y-86865803D01*
X97481484Y-86863462D01*
X97653466Y-86767147D01*
X97658218Y-86763882D01*
X97809763Y-86637844D01*
X97813844Y-86633763D01*
X97939882Y-86482218D01*
X97943147Y-86477466D01*
X98039462Y-86305484D01*
X98041803Y-86300227D01*
X98105169Y-86113559D01*
X98106510Y-86107971D01*
X98123412Y-85991403D01*
X98121051Y-85982105D01*
X98115831Y-85979000D01*
X97167533Y-85979000D01*
X97158671Y-85982671D01*
X97155000Y-85991533D01*
X97155000Y-86936677D01*
X96901000Y-86936677D01*
X96901000Y-85991533D01*
X96897329Y-85982671D01*
X96888467Y-85979000D01*
X95942409Y-85979000D01*
X95934669Y-85982206D01*
X95930766Y-85992577D01*
X95758500Y-85992577D01*
X95758500Y-85712554D01*
X95932719Y-85712554D01*
X95935323Y-85721787D01*
X95941060Y-85725000D01*
X96888467Y-85725000D01*
X96897329Y-85721329D01*
X96901000Y-85712467D01*
X97155000Y-85712467D01*
X97158671Y-85721329D01*
X97167533Y-85725000D01*
X98112527Y-85725000D01*
X98121389Y-85721329D01*
X98124118Y-85714743D01*
X98118428Y-85652821D01*
X98117382Y-85647176D01*
X98063873Y-85457445D01*
X98061811Y-85452076D01*
X97974625Y-85275279D01*
X97971622Y-85270379D01*
X97853671Y-85112424D01*
X97849830Y-85108159D01*
X97705075Y-84974348D01*
X97700508Y-84970843D01*
X97533793Y-84865654D01*
X97528672Y-84863044D01*
X97345578Y-84789998D01*
X97340062Y-84788364D01*
X97167292Y-84753998D01*
X97157883Y-84755869D01*
X97155000Y-84760185D01*
X97155000Y-85712467D01*
X96901000Y-85712467D01*
X96901000Y-84766096D01*
X96897329Y-84757234D01*
X96892142Y-84755085D01*
X96743885Y-84780560D01*
X96738331Y-84782048D01*
X96553390Y-84850277D01*
X96548199Y-84852752D01*
X96378783Y-84953545D01*
X96374136Y-84956921D01*
X96225927Y-85086897D01*
X96221968Y-85091069D01*
X96099932Y-85245870D01*
X96096794Y-85250703D01*
X96005013Y-85425148D01*
X96002809Y-85430469D01*
X95944354Y-85618725D01*
X95943159Y-85624349D01*
X95932719Y-85712554D01*
X95758500Y-85712554D01*
X95758500Y-83452577D01*
X95930766Y-83452577D01*
X95932731Y-83482561D01*
X95933630Y-83488241D01*
X95982154Y-83679304D01*
X95984075Y-83684726D01*
X96066605Y-83863746D01*
X96069476Y-83868719D01*
X96183250Y-84029706D01*
X96186983Y-84034077D01*
X96328190Y-84171634D01*
X96332649Y-84175245D01*
X96496562Y-84284769D01*
X96501611Y-84287510D01*
X96682735Y-84365327D01*
X96688195Y-84367101D01*
X96880464Y-84410607D01*
X96886174Y-84411359D01*
X96888478Y-84411449D01*
X96896794Y-84408381D01*
X96901000Y-84398765D01*
X96901000Y-84396677D01*
X97155000Y-84396677D01*
X97158671Y-84405539D01*
X97164283Y-84407864D01*
X97283971Y-84390510D01*
X97289559Y-84389169D01*
X97476227Y-84325803D01*
X97481484Y-84323462D01*
X97653466Y-84227147D01*
X97658218Y-84223882D01*
X97809763Y-84097844D01*
X97813844Y-84093763D01*
X97939882Y-83942218D01*
X97943147Y-83937466D01*
X98039462Y-83765484D01*
X98041803Y-83760227D01*
X98105169Y-83573559D01*
X98106510Y-83567971D01*
X98123412Y-83451403D01*
X98121051Y-83442105D01*
X98115831Y-83439000D01*
X97167533Y-83439000D01*
X97158671Y-83442671D01*
X97155000Y-83451533D01*
X97155000Y-84396677D01*
X96901000Y-84396677D01*
X96901000Y-83451533D01*
X96897329Y-83442671D01*
X96888467Y-83439000D01*
X95942409Y-83439000D01*
X95934669Y-83442206D01*
X95930766Y-83452577D01*
X95758500Y-83452577D01*
X95758500Y-83172554D01*
X95932719Y-83172554D01*
X95935323Y-83181787D01*
X95941060Y-83185000D01*
X96888467Y-83185000D01*
X96897329Y-83181329D01*
X96901000Y-83172467D01*
X97155000Y-83172467D01*
X97158671Y-83181329D01*
X97167533Y-83185000D01*
X98112527Y-83185000D01*
X98121389Y-83181329D01*
X98124118Y-83174743D01*
X98118428Y-83112821D01*
X98117382Y-83107176D01*
X98063873Y-82917445D01*
X98061811Y-82912076D01*
X97974625Y-82735279D01*
X97971622Y-82730379D01*
X97853671Y-82572424D01*
X97849830Y-82568159D01*
X97705075Y-82434348D01*
X97700508Y-82430843D01*
X97533793Y-82325654D01*
X97528672Y-82323044D01*
X97345578Y-82249998D01*
X97340062Y-82248364D01*
X97167292Y-82213998D01*
X97157883Y-82215869D01*
X97155000Y-82220185D01*
X97155000Y-83172467D01*
X96901000Y-83172467D01*
X96901000Y-82226096D01*
X96897329Y-82217234D01*
X96892142Y-82215085D01*
X96743885Y-82240560D01*
X96738331Y-82242048D01*
X96553390Y-82310277D01*
X96548199Y-82312752D01*
X96378783Y-82413545D01*
X96374136Y-82416921D01*
X96225927Y-82546897D01*
X96221968Y-82551069D01*
X96099932Y-82705870D01*
X96096794Y-82710703D01*
X96005013Y-82885148D01*
X96002809Y-82890469D01*
X95944354Y-83078725D01*
X95943159Y-83084349D01*
X95932719Y-83172554D01*
X95758500Y-83172554D01*
X95758500Y-80912577D01*
X95930766Y-80912577D01*
X95932731Y-80942561D01*
X95933630Y-80948241D01*
X95982154Y-81139304D01*
X95984075Y-81144726D01*
X96066605Y-81323746D01*
X96069476Y-81328719D01*
X96183250Y-81489706D01*
X96186983Y-81494077D01*
X96328190Y-81631634D01*
X96332649Y-81635245D01*
X96496562Y-81744769D01*
X96501611Y-81747510D01*
X96682735Y-81825327D01*
X96688195Y-81827101D01*
X96880464Y-81870607D01*
X96886174Y-81871359D01*
X96888478Y-81871449D01*
X96896794Y-81868381D01*
X96901000Y-81858765D01*
X96901000Y-81856677D01*
X97155000Y-81856677D01*
X97158671Y-81865539D01*
X97164283Y-81867864D01*
X97283971Y-81850510D01*
X97289559Y-81849169D01*
X97476227Y-81785803D01*
X97481484Y-81783462D01*
X97653466Y-81687147D01*
X97658218Y-81683882D01*
X97809763Y-81557844D01*
X97813844Y-81553763D01*
X97939882Y-81402218D01*
X97943147Y-81397466D01*
X98039462Y-81225484D01*
X98041803Y-81220227D01*
X98105169Y-81033559D01*
X98106510Y-81027971D01*
X98123412Y-80911403D01*
X98121051Y-80902105D01*
X98115831Y-80899000D01*
X97167533Y-80899000D01*
X97158671Y-80902671D01*
X97155000Y-80911533D01*
X97155000Y-81856677D01*
X96901000Y-81856677D01*
X96901000Y-80911533D01*
X96897329Y-80902671D01*
X96888467Y-80899000D01*
X95942409Y-80899000D01*
X95934669Y-80902206D01*
X95930766Y-80912577D01*
X95758500Y-80912577D01*
X95758500Y-80632554D01*
X95932719Y-80632554D01*
X95935323Y-80641787D01*
X95941060Y-80645000D01*
X96888467Y-80645000D01*
X96897329Y-80641329D01*
X96901000Y-80632467D01*
X97155000Y-80632467D01*
X97158671Y-80641329D01*
X97167533Y-80645000D01*
X98112527Y-80645000D01*
X98121389Y-80641329D01*
X98124118Y-80634743D01*
X98118428Y-80572821D01*
X98117382Y-80567176D01*
X98063873Y-80377445D01*
X98061811Y-80372076D01*
X97974625Y-80195279D01*
X97971622Y-80190379D01*
X97853671Y-80032424D01*
X97849830Y-80028159D01*
X97705075Y-79894348D01*
X97700508Y-79890843D01*
X97533793Y-79785654D01*
X97528672Y-79783044D01*
X97345578Y-79709998D01*
X97340062Y-79708364D01*
X97167292Y-79673998D01*
X97157883Y-79675869D01*
X97155000Y-79680185D01*
X97155000Y-80632467D01*
X96901000Y-80632467D01*
X96901000Y-79686096D01*
X96897329Y-79677234D01*
X96892142Y-79675085D01*
X96743885Y-79700560D01*
X96738331Y-79702048D01*
X96553390Y-79770277D01*
X96548199Y-79772752D01*
X96378783Y-79873545D01*
X96374136Y-79876921D01*
X96225927Y-80006897D01*
X96221968Y-80011069D01*
X96099932Y-80165870D01*
X96096794Y-80170703D01*
X96005013Y-80345148D01*
X96002809Y-80350469D01*
X95944354Y-80538725D01*
X95943159Y-80544349D01*
X95932719Y-80632554D01*
X95758500Y-80632554D01*
X95758500Y-78202964D01*
X95919148Y-78202964D01*
X95932424Y-78405522D01*
X95933133Y-78408315D01*
X95933134Y-78408319D01*
X95968857Y-78548975D01*
X95982392Y-78602269D01*
X96067377Y-78786616D01*
X96184533Y-78952389D01*
X96329938Y-79094035D01*
X96498720Y-79206812D01*
X96501371Y-79207951D01*
X96590543Y-79246262D01*
X96685228Y-79286942D01*
X96883216Y-79331742D01*
X96886104Y-79331855D01*
X96886108Y-79331856D01*
X96984634Y-79335727D01*
X97086053Y-79339712D01*
X97286945Y-79310584D01*
X97479165Y-79245334D01*
X97656276Y-79146147D01*
X97718934Y-79094035D01*
X97810123Y-79018193D01*
X97812345Y-79016345D01*
X97942147Y-78860276D01*
X97963521Y-78822111D01*
X98039921Y-78685688D01*
X98041334Y-78683165D01*
X98106584Y-78490945D01*
X98135712Y-78290053D01*
X98137232Y-78232000D01*
X98118658Y-78029859D01*
X98109848Y-77998621D01*
X98064341Y-77837265D01*
X98064339Y-77837260D01*
X98063557Y-77834487D01*
X97973776Y-77652428D01*
X97852320Y-77489779D01*
X97703258Y-77351987D01*
X97531581Y-77243667D01*
X97528903Y-77242599D01*
X97528900Y-77242597D01*
X97345721Y-77169516D01*
X97343039Y-77168446D01*
X97340208Y-77167883D01*
X97340205Y-77167882D01*
X97146777Y-77129407D01*
X97146776Y-77129407D01*
X97143946Y-77128844D01*
X97141067Y-77128806D01*
X97141064Y-77128806D01*
X97022647Y-77127256D01*
X96940971Y-77126187D01*
X96807829Y-77149065D01*
X96743755Y-77160075D01*
X96743754Y-77160075D01*
X96740910Y-77160564D01*
X96738205Y-77161562D01*
X96738201Y-77161563D01*
X96656382Y-77191748D01*
X96550463Y-77230824D01*
X96376010Y-77334612D01*
X96223392Y-77468455D01*
X96097720Y-77627869D01*
X96003203Y-77807515D01*
X96002347Y-77810273D01*
X96002345Y-77810277D01*
X95994828Y-77834487D01*
X95943007Y-78001378D01*
X95919148Y-78202964D01*
X95758500Y-78202964D01*
X95758500Y-75832577D01*
X95930766Y-75832577D01*
X95932731Y-75862561D01*
X95933630Y-75868241D01*
X95982154Y-76059304D01*
X95984075Y-76064726D01*
X96066605Y-76243746D01*
X96069476Y-76248719D01*
X96183250Y-76409706D01*
X96186983Y-76414077D01*
X96328190Y-76551634D01*
X96332649Y-76555245D01*
X96496562Y-76664769D01*
X96501611Y-76667510D01*
X96682735Y-76745327D01*
X96688195Y-76747101D01*
X96880464Y-76790607D01*
X96886174Y-76791359D01*
X96888478Y-76791449D01*
X96896794Y-76788381D01*
X96901000Y-76778765D01*
X96901000Y-76776677D01*
X97155000Y-76776677D01*
X97158671Y-76785539D01*
X97164283Y-76787864D01*
X97283971Y-76770510D01*
X97289559Y-76769169D01*
X97476227Y-76705803D01*
X97481484Y-76703462D01*
X97653466Y-76607147D01*
X97658218Y-76603882D01*
X97809763Y-76477844D01*
X97813844Y-76473763D01*
X97939882Y-76322218D01*
X97943147Y-76317466D01*
X98039462Y-76145484D01*
X98041803Y-76140227D01*
X98105169Y-75953559D01*
X98106510Y-75947971D01*
X98123412Y-75831403D01*
X98121051Y-75822105D01*
X98115831Y-75819000D01*
X97167533Y-75819000D01*
X97158671Y-75822671D01*
X97155000Y-75831533D01*
X97155000Y-76776677D01*
X96901000Y-76776677D01*
X96901000Y-75831533D01*
X96897329Y-75822671D01*
X96888467Y-75819000D01*
X95942409Y-75819000D01*
X95934669Y-75822206D01*
X95930766Y-75832577D01*
X95758500Y-75832577D01*
X95758500Y-74476290D01*
X95776952Y-74431742D01*
X95821500Y-74413290D01*
X95866048Y-74431742D01*
X96091265Y-74656959D01*
X96099643Y-74667333D01*
X96108429Y-74680940D01*
X96112521Y-74684166D01*
X96112522Y-74684167D01*
X96137713Y-74704026D01*
X96143259Y-74708953D01*
X96146944Y-74712638D01*
X96149054Y-74714146D01*
X96149060Y-74714151D01*
X96163872Y-74724736D01*
X96166232Y-74726507D01*
X96207647Y-74759156D01*
X96212562Y-74760882D01*
X96216000Y-74762772D01*
X96219498Y-74764486D01*
X96223734Y-74767513D01*
X96251783Y-74775902D01*
X96289174Y-74806343D01*
X96294089Y-74854310D01*
X96275269Y-74883625D01*
X96225927Y-74926897D01*
X96221968Y-74931069D01*
X96099932Y-75085870D01*
X96096794Y-75090703D01*
X96005013Y-75265148D01*
X96002809Y-75270469D01*
X95944354Y-75458725D01*
X95943159Y-75464349D01*
X95932719Y-75552554D01*
X95935323Y-75561787D01*
X95941060Y-75565000D01*
X96888467Y-75565000D01*
X96897329Y-75561329D01*
X96901000Y-75552467D01*
X96901000Y-74864500D01*
X96919452Y-74819952D01*
X96964000Y-74801500D01*
X97092000Y-74801500D01*
X97136548Y-74819952D01*
X97155000Y-74864500D01*
X97155000Y-75552467D01*
X97158671Y-75561329D01*
X97167533Y-75565000D01*
X98112527Y-75565000D01*
X98121389Y-75561329D01*
X98124118Y-75554743D01*
X98118428Y-75492821D01*
X98117382Y-75487176D01*
X98063873Y-75297445D01*
X98061811Y-75292076D01*
X97974625Y-75115279D01*
X97971622Y-75110379D01*
X97853671Y-74952424D01*
X97849826Y-74948153D01*
X97809376Y-74910762D01*
X97789189Y-74866973D01*
X97805878Y-74821736D01*
X97852140Y-74801500D01*
X98505900Y-74801500D01*
X98550448Y-74819952D01*
X98568900Y-74864500D01*
X98568900Y-75349355D01*
X98550448Y-75393903D01*
X98467074Y-75477277D01*
X98464822Y-75481697D01*
X98422377Y-75565000D01*
X98408902Y-75591445D01*
X98393900Y-75686166D01*
X98393900Y-78449834D01*
X98408902Y-78544555D01*
X98467074Y-78658723D01*
X98535048Y-78726697D01*
X98553500Y-78771245D01*
X98553500Y-85423783D01*
X98552089Y-85437041D01*
X98548680Y-85452876D01*
X98549292Y-85458047D01*
X98553063Y-85489907D01*
X98553500Y-85497312D01*
X98553500Y-85502524D01*
X98553927Y-85505088D01*
X98553927Y-85505090D01*
X98556915Y-85523041D01*
X98557333Y-85525980D01*
X98563530Y-85578341D01*
X98565786Y-85583039D01*
X98566881Y-85586807D01*
X98568141Y-85590487D01*
X98568996Y-85595626D01*
X98571470Y-85600211D01*
X98594038Y-85642037D01*
X98595386Y-85644682D01*
X98618219Y-85692232D01*
X98620768Y-85695264D01*
X98620770Y-85695267D01*
X98620938Y-85695467D01*
X98620947Y-85695477D01*
X98621814Y-85696508D01*
X98622035Y-85696729D01*
X98624683Y-85699866D01*
X98626516Y-85702229D01*
X98628990Y-85706814D01*
X98645188Y-85721787D01*
X98669459Y-85744223D01*
X98671243Y-85745937D01*
X99012265Y-86086959D01*
X99020643Y-86097333D01*
X99029429Y-86110940D01*
X99033521Y-86114166D01*
X99033522Y-86114167D01*
X99058713Y-86134026D01*
X99064259Y-86138953D01*
X99067944Y-86142638D01*
X99070054Y-86144146D01*
X99070060Y-86144151D01*
X99084872Y-86154736D01*
X99087232Y-86156507D01*
X99128647Y-86189156D01*
X99133562Y-86190882D01*
X99137000Y-86192772D01*
X99140497Y-86194485D01*
X99144734Y-86197513D01*
X99195306Y-86212638D01*
X99198077Y-86213539D01*
X99247851Y-86231018D01*
X99251949Y-86231373D01*
X99252061Y-86231383D01*
X99252069Y-86231383D01*
X99253416Y-86231500D01*
X99253734Y-86231500D01*
X99257812Y-86231845D01*
X99260788Y-86232221D01*
X99265778Y-86233713D01*
X99320857Y-86231549D01*
X99323330Y-86231500D01*
X103566319Y-86231500D01*
X103610867Y-86249952D01*
X103623532Y-86268125D01*
X103687377Y-86406616D01*
X103804533Y-86572389D01*
X103949938Y-86714035D01*
X104118720Y-86826812D01*
X104121371Y-86827951D01*
X104210543Y-86866262D01*
X104305228Y-86906942D01*
X104503216Y-86951742D01*
X104506104Y-86951855D01*
X104506108Y-86951856D01*
X104604635Y-86955727D01*
X104706053Y-86959712D01*
X104906945Y-86930584D01*
X104911114Y-86929169D01*
X105096431Y-86866262D01*
X105096430Y-86866262D01*
X105099165Y-86865334D01*
X105276276Y-86766147D01*
X105279000Y-86763882D01*
X105430123Y-86638193D01*
X105432345Y-86636345D01*
X105487497Y-86570032D01*
X105560301Y-86482496D01*
X105560303Y-86482493D01*
X105562147Y-86480276D01*
X105604872Y-86403986D01*
X105659921Y-86305688D01*
X105661334Y-86303165D01*
X105726584Y-86110945D01*
X105755712Y-85910053D01*
X105757232Y-85852000D01*
X105738658Y-85649859D01*
X105718488Y-85578341D01*
X105684341Y-85457265D01*
X105684339Y-85457260D01*
X105683557Y-85454487D01*
X105593776Y-85272428D01*
X105472320Y-85109779D01*
X105323258Y-84971987D01*
X105151581Y-84863667D01*
X105148903Y-84862599D01*
X105148900Y-84862597D01*
X104965721Y-84789516D01*
X104963039Y-84788446D01*
X104960208Y-84787883D01*
X104960205Y-84787882D01*
X104766777Y-84749407D01*
X104766776Y-84749407D01*
X104763946Y-84748844D01*
X104761067Y-84748806D01*
X104761064Y-84748806D01*
X104642647Y-84747256D01*
X104560971Y-84746187D01*
X104445108Y-84766096D01*
X104363755Y-84780075D01*
X104363754Y-84780075D01*
X104360910Y-84780564D01*
X104358205Y-84781562D01*
X104358201Y-84781563D01*
X104276382Y-84811748D01*
X104170463Y-84850824D01*
X103996010Y-84954612D01*
X103843392Y-85088455D01*
X103717720Y-85247869D01*
X103667390Y-85343530D01*
X103625167Y-85423783D01*
X103623203Y-85427515D01*
X103622346Y-85430276D01*
X103621242Y-85432941D01*
X103619600Y-85432261D01*
X103592172Y-85465250D01*
X103562830Y-85472500D01*
X99497290Y-85472500D01*
X99452742Y-85454048D01*
X99330952Y-85332258D01*
X99312500Y-85287710D01*
X99312500Y-83282964D01*
X103539148Y-83282964D01*
X103552424Y-83485522D01*
X103553133Y-83488315D01*
X103553134Y-83488319D01*
X103574813Y-83573676D01*
X103602392Y-83682269D01*
X103687377Y-83866616D01*
X103804533Y-84032389D01*
X103949938Y-84174035D01*
X104118720Y-84286812D01*
X104121371Y-84287951D01*
X104210543Y-84326262D01*
X104305228Y-84366942D01*
X104503216Y-84411742D01*
X104506104Y-84411855D01*
X104506108Y-84411856D01*
X104604635Y-84415727D01*
X104706053Y-84419712D01*
X104906945Y-84390584D01*
X104911114Y-84389169D01*
X105096431Y-84326262D01*
X105096430Y-84326262D01*
X105099165Y-84325334D01*
X105276276Y-84226147D01*
X105279000Y-84223882D01*
X105430123Y-84098193D01*
X105432345Y-84096345D01*
X105487497Y-84030032D01*
X105560301Y-83942496D01*
X105560303Y-83942493D01*
X105562147Y-83940276D01*
X105661334Y-83763165D01*
X105726584Y-83570945D01*
X105755712Y-83370053D01*
X105757232Y-83312000D01*
X105738658Y-83109859D01*
X105729848Y-83078621D01*
X105684341Y-82917265D01*
X105684339Y-82917260D01*
X105683557Y-82914487D01*
X105593776Y-82732428D01*
X105472320Y-82569779D01*
X105323258Y-82431987D01*
X105151581Y-82323667D01*
X105148903Y-82322599D01*
X105148900Y-82322597D01*
X104965721Y-82249516D01*
X104963039Y-82248446D01*
X104960208Y-82247883D01*
X104960205Y-82247882D01*
X104766777Y-82209407D01*
X104766776Y-82209407D01*
X104763946Y-82208844D01*
X104761067Y-82208806D01*
X104761064Y-82208806D01*
X104642647Y-82207256D01*
X104560971Y-82206187D01*
X104445108Y-82226096D01*
X104363755Y-82240075D01*
X104363754Y-82240075D01*
X104360910Y-82240564D01*
X104358205Y-82241562D01*
X104358201Y-82241563D01*
X104276382Y-82271748D01*
X104170463Y-82310824D01*
X103996010Y-82414612D01*
X103843392Y-82548455D01*
X103717720Y-82707869D01*
X103623203Y-82887515D01*
X103622347Y-82890273D01*
X103622345Y-82890277D01*
X103614828Y-82914487D01*
X103563007Y-83081378D01*
X103539148Y-83282964D01*
X99312500Y-83282964D01*
X99312500Y-78799810D01*
X99330952Y-78755262D01*
X99336098Y-78750867D01*
X99339123Y-78749326D01*
X99429726Y-78658723D01*
X99487898Y-78544555D01*
X99502900Y-78449834D01*
X99502900Y-75686166D01*
X99487898Y-75591445D01*
X99474424Y-75565000D01*
X99431978Y-75481697D01*
X99429726Y-75477277D01*
X99346352Y-75393903D01*
X99327900Y-75349355D01*
X99327900Y-74611617D01*
X99329311Y-74598356D01*
X99332720Y-74582524D01*
X99328337Y-74545493D01*
X99327900Y-74538088D01*
X99327900Y-74532876D01*
X99324485Y-74512359D01*
X99324067Y-74509420D01*
X99318482Y-74462233D01*
X99317870Y-74457059D01*
X99315614Y-74452361D01*
X99314519Y-74448593D01*
X99313259Y-74444913D01*
X99312404Y-74439774D01*
X99287362Y-74393363D01*
X99286014Y-74390718D01*
X99264897Y-74346741D01*
X99264896Y-74346739D01*
X99263181Y-74343168D01*
X99260632Y-74340136D01*
X99260630Y-74340133D01*
X99260462Y-74339933D01*
X99260453Y-74339923D01*
X99259586Y-74338892D01*
X99259365Y-74338671D01*
X99256717Y-74335534D01*
X99254884Y-74333171D01*
X99252410Y-74328586D01*
X99211941Y-74291177D01*
X99210157Y-74289463D01*
X99107735Y-74187041D01*
X99099357Y-74176667D01*
X99093396Y-74167435D01*
X99090571Y-74163060D01*
X99086478Y-74159833D01*
X99061287Y-74139974D01*
X99055741Y-74135047D01*
X99052056Y-74131362D01*
X99049948Y-74129856D01*
X99049945Y-74129853D01*
X99043447Y-74125210D01*
X99035127Y-74119265D01*
X99032785Y-74117506D01*
X99014353Y-74102976D01*
X98995442Y-74088067D01*
X98995440Y-74088066D01*
X98991353Y-74084844D01*
X98986440Y-74083119D01*
X98982993Y-74081224D01*
X98979504Y-74079515D01*
X98975266Y-74076486D01*
X98954918Y-74070401D01*
X98924709Y-74061366D01*
X98921886Y-74060448D01*
X98875894Y-74044297D01*
X98875893Y-74044297D01*
X98872149Y-74042982D01*
X98868051Y-74042627D01*
X98867939Y-74042617D01*
X98867931Y-74042617D01*
X98866584Y-74042500D01*
X98866266Y-74042500D01*
X98862188Y-74042155D01*
X98859212Y-74041779D01*
X98854222Y-74040287D01*
X98799831Y-74042424D01*
X98799143Y-74042451D01*
X98796670Y-74042500D01*
X97857912Y-74042500D01*
X97813364Y-74024048D01*
X97794912Y-73979500D01*
X97812674Y-73936618D01*
X97812345Y-73936345D01*
X97813226Y-73935286D01*
X97813226Y-73935285D01*
X97942147Y-73780276D01*
X97969357Y-73731690D01*
X98039921Y-73605688D01*
X98041334Y-73603165D01*
X98099163Y-73432807D01*
X98105657Y-73413676D01*
X98105657Y-73413675D01*
X98106584Y-73410945D01*
X98106997Y-73408093D01*
X98106999Y-73408087D01*
X98108621Y-73396896D01*
X98133274Y-73355456D01*
X98180008Y-73343587D01*
X98215517Y-73361387D01*
X98368089Y-73513959D01*
X98376467Y-73524333D01*
X98382391Y-73533508D01*
X98385253Y-73537940D01*
X98389345Y-73541166D01*
X98389346Y-73541167D01*
X98414537Y-73561026D01*
X98420083Y-73565953D01*
X98423768Y-73569638D01*
X98425878Y-73571146D01*
X98425883Y-73571150D01*
X98440679Y-73581723D01*
X98443053Y-73583505D01*
X98484471Y-73616156D01*
X98489383Y-73617881D01*
X98492833Y-73619778D01*
X98496325Y-73621489D01*
X98500559Y-73624514D01*
X98505546Y-73626005D01*
X98505545Y-73626005D01*
X98551113Y-73639633D01*
X98553937Y-73640551D01*
X98599933Y-73656704D01*
X98603675Y-73658018D01*
X98609240Y-73658500D01*
X98609552Y-73658500D01*
X98613625Y-73658845D01*
X98616616Y-73659223D01*
X98621602Y-73660714D01*
X98626801Y-73660510D01*
X98626804Y-73660510D01*
X98676695Y-73658549D01*
X98679169Y-73658500D01*
X99765710Y-73658500D01*
X99810258Y-73676952D01*
X99820448Y-73687142D01*
X99838900Y-73731690D01*
X99838900Y-75349355D01*
X99820448Y-75393903D01*
X99737074Y-75477277D01*
X99734822Y-75481697D01*
X99692377Y-75565000D01*
X99678902Y-75591445D01*
X99663900Y-75686166D01*
X99663900Y-78449834D01*
X99678902Y-78544555D01*
X99737074Y-78658723D01*
X99820448Y-78742097D01*
X99838900Y-78786645D01*
X99838900Y-80359183D01*
X99837489Y-80372441D01*
X99834080Y-80388276D01*
X99834692Y-80393447D01*
X99838463Y-80425307D01*
X99838900Y-80432712D01*
X99838900Y-80437924D01*
X99839327Y-80440488D01*
X99839327Y-80440490D01*
X99842315Y-80458441D01*
X99842733Y-80461380D01*
X99848930Y-80513741D01*
X99851186Y-80518439D01*
X99852281Y-80522207D01*
X99853541Y-80525887D01*
X99854396Y-80531026D01*
X99856870Y-80535611D01*
X99879438Y-80577437D01*
X99880786Y-80580082D01*
X99903619Y-80627632D01*
X99906168Y-80630664D01*
X99906170Y-80630667D01*
X99906326Y-80630852D01*
X99907214Y-80631908D01*
X99907436Y-80632130D01*
X99910084Y-80635267D01*
X99911916Y-80637629D01*
X99914390Y-80642214D01*
X99918215Y-80645750D01*
X99954870Y-80679634D01*
X99956653Y-80681348D01*
X100282269Y-81006964D01*
X100290644Y-81017334D01*
X100299429Y-81030940D01*
X100303521Y-81034166D01*
X100303523Y-81034168D01*
X100328708Y-81054022D01*
X100334254Y-81058949D01*
X100337943Y-81062638D01*
X100340053Y-81064146D01*
X100340058Y-81064150D01*
X100354861Y-81074728D01*
X100357234Y-81076510D01*
X100394554Y-81105931D01*
X100394561Y-81105935D01*
X100398647Y-81109156D01*
X100403560Y-81110881D01*
X100406998Y-81112771D01*
X100410497Y-81114485D01*
X100414734Y-81117513D01*
X100465306Y-81132638D01*
X100468077Y-81133539D01*
X100517851Y-81151018D01*
X100521949Y-81151373D01*
X100522061Y-81151383D01*
X100522069Y-81151383D01*
X100523416Y-81151500D01*
X100523734Y-81151500D01*
X100527812Y-81151845D01*
X100530788Y-81152221D01*
X100535778Y-81153713D01*
X100590857Y-81151549D01*
X100593330Y-81151500D01*
X103566319Y-81151500D01*
X103610867Y-81169952D01*
X103623532Y-81188125D01*
X103687377Y-81326616D01*
X103804533Y-81492389D01*
X103949938Y-81634035D01*
X104118720Y-81746812D01*
X104121371Y-81747951D01*
X104210543Y-81786262D01*
X104305228Y-81826942D01*
X104503216Y-81871742D01*
X104506104Y-81871855D01*
X104506108Y-81871856D01*
X104604635Y-81875727D01*
X104706053Y-81879712D01*
X104906945Y-81850584D01*
X104911114Y-81849169D01*
X105096431Y-81786262D01*
X105096430Y-81786262D01*
X105099165Y-81785334D01*
X105276276Y-81686147D01*
X105279000Y-81683882D01*
X105430123Y-81558193D01*
X105432345Y-81556345D01*
X105487497Y-81490032D01*
X105560301Y-81402496D01*
X105560303Y-81402493D01*
X105562147Y-81400276D01*
X105604872Y-81323986D01*
X105659921Y-81225688D01*
X105661334Y-81223165D01*
X105726584Y-81030945D01*
X105755712Y-80830053D01*
X105757232Y-80772000D01*
X105738658Y-80569859D01*
X105702172Y-80440490D01*
X105684341Y-80377265D01*
X105684339Y-80377260D01*
X105683557Y-80374487D01*
X105593776Y-80192428D01*
X105472320Y-80029779D01*
X105323258Y-79891987D01*
X105151581Y-79783667D01*
X105148903Y-79782599D01*
X105148900Y-79782597D01*
X104965721Y-79709516D01*
X104963039Y-79708446D01*
X104960208Y-79707883D01*
X104960205Y-79707882D01*
X104766777Y-79669407D01*
X104766776Y-79669407D01*
X104763946Y-79668844D01*
X104761067Y-79668806D01*
X104761064Y-79668806D01*
X104642647Y-79667256D01*
X104560971Y-79666187D01*
X104445108Y-79686096D01*
X104363755Y-79700075D01*
X104363754Y-79700075D01*
X104360910Y-79700564D01*
X104358205Y-79701562D01*
X104358201Y-79701563D01*
X104276382Y-79731748D01*
X104170463Y-79770824D01*
X103996010Y-79874612D01*
X103843392Y-80008455D01*
X103717720Y-80167869D01*
X103623203Y-80347515D01*
X103622346Y-80350276D01*
X103621242Y-80352941D01*
X103619600Y-80352261D01*
X103592172Y-80385250D01*
X103562830Y-80392500D01*
X100767290Y-80392500D01*
X100722742Y-80374048D01*
X100616352Y-80267658D01*
X100597900Y-80223110D01*
X100597900Y-78786645D01*
X100616352Y-78742097D01*
X100699726Y-78658723D01*
X100757898Y-78544555D01*
X100772900Y-78449834D01*
X100933900Y-78449834D01*
X100948902Y-78544555D01*
X101007074Y-78658723D01*
X101097677Y-78749326D01*
X101102098Y-78751578D01*
X101102097Y-78751578D01*
X101196757Y-78799810D01*
X101211845Y-78807498D01*
X101306566Y-78822500D01*
X101670234Y-78822500D01*
X101764955Y-78807498D01*
X101780044Y-78799810D01*
X101874703Y-78751578D01*
X101874702Y-78751578D01*
X101879123Y-78749326D01*
X101969726Y-78658723D01*
X102027898Y-78544555D01*
X102042900Y-78449834D01*
X102042900Y-78447313D01*
X102204401Y-78447313D01*
X102204790Y-78452247D01*
X102218608Y-78539497D01*
X102221638Y-78548822D01*
X102275231Y-78654005D01*
X102280989Y-78661931D01*
X102364469Y-78745411D01*
X102372395Y-78751169D01*
X102477578Y-78804762D01*
X102486904Y-78807793D01*
X102574152Y-78821611D01*
X102579086Y-78822000D01*
X102618867Y-78822000D01*
X102627729Y-78818329D01*
X102631400Y-78809467D01*
X102631400Y-78809466D01*
X102885400Y-78809466D01*
X102889071Y-78818328D01*
X102897933Y-78821999D01*
X102937713Y-78821999D01*
X102942647Y-78821610D01*
X103029897Y-78807792D01*
X103039222Y-78804762D01*
X103144405Y-78751169D01*
X103152331Y-78745411D01*
X103235811Y-78661931D01*
X103241569Y-78654005D01*
X103295162Y-78548822D01*
X103298193Y-78539496D01*
X103312011Y-78452248D01*
X103312400Y-78447314D01*
X103312400Y-78202964D01*
X103539148Y-78202964D01*
X103552424Y-78405522D01*
X103553133Y-78408315D01*
X103553134Y-78408319D01*
X103588857Y-78548975D01*
X103602392Y-78602269D01*
X103687377Y-78786616D01*
X103804533Y-78952389D01*
X103949938Y-79094035D01*
X104118720Y-79206812D01*
X104121371Y-79207951D01*
X104210543Y-79246262D01*
X104305228Y-79286942D01*
X104503216Y-79331742D01*
X104506104Y-79331855D01*
X104506108Y-79331856D01*
X104604634Y-79335727D01*
X104706053Y-79339712D01*
X104906945Y-79310584D01*
X105099165Y-79245334D01*
X105276276Y-79146147D01*
X105338934Y-79094035D01*
X105430123Y-79018193D01*
X105432345Y-79016345D01*
X105562147Y-78860276D01*
X105583521Y-78822111D01*
X105659921Y-78685688D01*
X105661334Y-78683165D01*
X105726584Y-78490945D01*
X105755712Y-78290053D01*
X105757232Y-78232000D01*
X105738658Y-78029859D01*
X105729848Y-77998621D01*
X105684341Y-77837265D01*
X105684339Y-77837260D01*
X105683557Y-77834487D01*
X105593776Y-77652428D01*
X105472320Y-77489779D01*
X105323258Y-77351987D01*
X105151581Y-77243667D01*
X105148903Y-77242599D01*
X105148900Y-77242597D01*
X104965721Y-77169516D01*
X104963039Y-77168446D01*
X104960208Y-77167883D01*
X104960205Y-77167882D01*
X104766777Y-77129407D01*
X104766776Y-77129407D01*
X104763946Y-77128844D01*
X104761067Y-77128806D01*
X104761064Y-77128806D01*
X104642647Y-77127256D01*
X104560971Y-77126187D01*
X104427829Y-77149065D01*
X104363755Y-77160075D01*
X104363754Y-77160075D01*
X104360910Y-77160564D01*
X104358205Y-77161562D01*
X104358201Y-77161563D01*
X104276382Y-77191748D01*
X104170463Y-77230824D01*
X103996010Y-77334612D01*
X103843392Y-77468455D01*
X103717720Y-77627869D01*
X103623203Y-77807515D01*
X103622347Y-77810273D01*
X103622345Y-77810277D01*
X103614828Y-77834487D01*
X103563007Y-78001378D01*
X103539148Y-78202964D01*
X103312400Y-78202964D01*
X103312400Y-77207533D01*
X103308729Y-77198671D01*
X103299867Y-77195000D01*
X102897933Y-77195000D01*
X102889071Y-77198671D01*
X102885400Y-77207533D01*
X102885400Y-78809466D01*
X102631400Y-78809466D01*
X102631400Y-77207533D01*
X102627729Y-77198671D01*
X102618867Y-77195000D01*
X102216934Y-77195000D01*
X102208072Y-77198671D01*
X102204401Y-77207533D01*
X102204401Y-78447313D01*
X102042900Y-78447313D01*
X102042900Y-76928467D01*
X102204400Y-76928467D01*
X102208071Y-76937329D01*
X102216933Y-76941000D01*
X102618867Y-76941000D01*
X102627729Y-76937329D01*
X102631400Y-76928467D01*
X102885400Y-76928467D01*
X102889071Y-76937329D01*
X102897933Y-76941000D01*
X103299866Y-76941000D01*
X103308728Y-76937329D01*
X103312399Y-76928467D01*
X103312399Y-75688687D01*
X103312010Y-75683753D01*
X103298192Y-75596503D01*
X103295162Y-75587178D01*
X103241569Y-75481995D01*
X103235811Y-75474069D01*
X103152331Y-75390589D01*
X103144405Y-75384831D01*
X103039222Y-75331238D01*
X103029896Y-75328207D01*
X102942648Y-75314389D01*
X102937714Y-75314000D01*
X102897933Y-75314000D01*
X102889071Y-75317671D01*
X102885400Y-75326533D01*
X102885400Y-76928467D01*
X102631400Y-76928467D01*
X102631400Y-75326534D01*
X102627729Y-75317672D01*
X102618867Y-75314001D01*
X102579087Y-75314001D01*
X102574153Y-75314390D01*
X102486903Y-75328208D01*
X102477578Y-75331238D01*
X102372395Y-75384831D01*
X102364469Y-75390589D01*
X102280989Y-75474069D01*
X102275231Y-75481995D01*
X102221638Y-75587178D01*
X102218607Y-75596504D01*
X102204789Y-75683752D01*
X102204400Y-75688686D01*
X102204400Y-76928467D01*
X102042900Y-76928467D01*
X102042900Y-75686166D01*
X102027898Y-75591445D01*
X102014424Y-75565000D01*
X101971978Y-75481697D01*
X101969726Y-75477277D01*
X101879123Y-75386674D01*
X101764955Y-75328502D01*
X101670234Y-75313500D01*
X101306566Y-75313500D01*
X101211845Y-75328502D01*
X101097677Y-75386674D01*
X101007074Y-75477277D01*
X101004822Y-75481697D01*
X100962377Y-75565000D01*
X100948902Y-75591445D01*
X100933900Y-75686166D01*
X100933900Y-78449834D01*
X100772900Y-78449834D01*
X100772900Y-75686166D01*
X100757898Y-75591445D01*
X100744424Y-75565000D01*
X100701978Y-75481697D01*
X100699726Y-75477277D01*
X100616352Y-75393903D01*
X100597900Y-75349355D01*
X100597900Y-73595617D01*
X100599311Y-73582356D01*
X100602720Y-73566524D01*
X100598518Y-73531018D01*
X100598337Y-73529493D01*
X100597900Y-73522088D01*
X100597900Y-73516876D01*
X100597473Y-73514310D01*
X100594485Y-73496359D01*
X100594067Y-73493420D01*
X100589589Y-73455587D01*
X100587870Y-73441059D01*
X100585614Y-73436361D01*
X100584519Y-73432593D01*
X100583259Y-73428913D01*
X100582404Y-73423774D01*
X100557362Y-73377363D01*
X100556014Y-73374718D01*
X100534897Y-73330741D01*
X100534896Y-73330739D01*
X100533181Y-73327168D01*
X100530632Y-73324136D01*
X100530630Y-73324133D01*
X100530462Y-73323933D01*
X100530453Y-73323923D01*
X100529586Y-73322892D01*
X100529365Y-73322671D01*
X100526717Y-73319534D01*
X100524884Y-73317171D01*
X100522410Y-73312586D01*
X100481941Y-73275177D01*
X100480157Y-73273463D01*
X100336742Y-73130048D01*
X100318290Y-73085500D01*
X100336742Y-73040952D01*
X100381290Y-73022500D01*
X100400234Y-73022500D01*
X100494955Y-73007498D01*
X100509889Y-72999889D01*
X100604703Y-72951578D01*
X100604702Y-72951578D01*
X100609123Y-72949326D01*
X100699726Y-72858723D01*
X100757898Y-72744555D01*
X100772900Y-72649834D01*
X100772900Y-69886166D01*
X100758359Y-69794355D01*
X100769615Y-69747469D01*
X100810728Y-69722276D01*
X100820583Y-69721500D01*
X100886217Y-69721500D01*
X100930765Y-69739952D01*
G37*
%TD.AperFunction*%
%TD*%
%TA.AperFunction,NonConductor*%
G36*
X95997697Y-66947952D02*
G01*
X96016149Y-66992500D01*
X95998074Y-67036139D01*
X95994516Y-67038516D01*
X95991066Y-67043679D01*
X95941714Y-67117538D01*
X95941713Y-67117540D01*
X95938266Y-67122699D01*
X95923500Y-67196933D01*
X95923500Y-67200025D01*
X95923501Y-68613709D01*
X95905049Y-68658257D01*
X95866048Y-68697258D01*
X95821500Y-68715710D01*
X95776952Y-68697258D01*
X95758500Y-68652710D01*
X95758500Y-66992500D01*
X95776952Y-66947952D01*
X95821500Y-66929500D01*
X95953149Y-66929500D01*
X95997697Y-66947952D01*
G37*
%TD.AperFunction*%
%TA.AperFunction,NonConductor*%
G36*
X104245298Y-66947952D02*
G01*
X104263750Y-66992500D01*
X104245298Y-67037048D01*
X104222557Y-67051605D01*
X104170463Y-67070824D01*
X103996010Y-67174612D01*
X103843392Y-67308455D01*
X103717720Y-67467869D01*
X103623203Y-67647515D01*
X103622347Y-67650273D01*
X103622345Y-67650277D01*
X103614828Y-67674487D01*
X103563007Y-67841378D01*
X103539148Y-68042964D01*
X103552424Y-68245522D01*
X103553135Y-68248320D01*
X103553136Y-68248329D01*
X103585559Y-68375992D01*
X103578641Y-68423711D01*
X103540006Y-68452561D01*
X103524498Y-68454500D01*
X99361217Y-68454500D01*
X99347959Y-68453089D01*
X99332124Y-68449680D01*
X99326953Y-68450292D01*
X99295095Y-68454063D01*
X99287690Y-68454500D01*
X99282476Y-68454500D01*
X99261930Y-68457920D01*
X99259026Y-68458333D01*
X99206659Y-68464531D01*
X99201961Y-68466787D01*
X99198167Y-68467889D01*
X99194510Y-68469141D01*
X99189374Y-68469996D01*
X99184792Y-68472468D01*
X99184793Y-68472468D01*
X99142946Y-68495047D01*
X99140301Y-68496395D01*
X99092768Y-68519220D01*
X99088492Y-68522814D01*
X99088263Y-68523043D01*
X99085140Y-68525678D01*
X99082769Y-68527517D01*
X99078186Y-68529990D01*
X99074651Y-68533814D01*
X99074650Y-68533815D01*
X99040777Y-68570459D01*
X99039063Y-68572243D01*
X98678383Y-68932923D01*
X98674373Y-68936600D01*
X98658312Y-68950101D01*
X98640436Y-68965127D01*
X98637751Y-68969587D01*
X98637750Y-68969588D01*
X98616823Y-69004348D01*
X98614107Y-69008482D01*
X98590514Y-69041496D01*
X98590513Y-69041498D01*
X98587486Y-69045734D01*
X98585995Y-69050721D01*
X98585994Y-69050722D01*
X98585403Y-69052700D01*
X98579015Y-69067148D01*
X98575272Y-69073365D01*
X98574176Y-69078454D01*
X98574176Y-69078455D01*
X98565637Y-69118117D01*
X98564411Y-69122893D01*
X98551287Y-69166778D01*
X98551492Y-69171987D01*
X98551572Y-69174035D01*
X98550210Y-69189767D01*
X98549776Y-69191784D01*
X98548680Y-69196876D01*
X98549292Y-69202047D01*
X98549292Y-69202048D01*
X98554062Y-69242347D01*
X98554450Y-69247279D01*
X98554977Y-69260679D01*
X98556247Y-69293021D01*
X98558127Y-69297880D01*
X98558870Y-69299802D01*
X98562675Y-69315119D01*
X98563530Y-69322341D01*
X98565784Y-69327035D01*
X98566399Y-69329152D01*
X98568900Y-69346728D01*
X98568900Y-69549355D01*
X98550448Y-69593903D01*
X98467074Y-69677277D01*
X98464822Y-69681697D01*
X98430637Y-69748789D01*
X98408902Y-69791445D01*
X98393900Y-69886166D01*
X98393900Y-70400110D01*
X98375448Y-70444658D01*
X98330900Y-70463110D01*
X98286352Y-70444658D01*
X98218735Y-70377041D01*
X98210357Y-70366667D01*
X98204396Y-70357435D01*
X98201571Y-70353060D01*
X98197478Y-70349833D01*
X98172287Y-70329974D01*
X98166741Y-70325047D01*
X98163056Y-70321362D01*
X98160948Y-70319856D01*
X98160945Y-70319853D01*
X98155399Y-70315890D01*
X98146127Y-70309265D01*
X98143785Y-70307506D01*
X98102353Y-70274844D01*
X98099465Y-70273830D01*
X98069747Y-70236436D01*
X98064340Y-70217264D01*
X98063557Y-70214487D01*
X97973776Y-70032428D01*
X97895707Y-69927881D01*
X97854049Y-69872094D01*
X97854047Y-69872092D01*
X97852320Y-69869779D01*
X97703258Y-69731987D01*
X97531581Y-69623667D01*
X97528903Y-69622599D01*
X97528900Y-69622597D01*
X97345721Y-69549516D01*
X97343039Y-69548446D01*
X97340208Y-69547883D01*
X97340205Y-69547882D01*
X97146777Y-69509407D01*
X97146776Y-69509407D01*
X97143946Y-69508844D01*
X97141067Y-69508806D01*
X97141064Y-69508806D01*
X97022647Y-69507256D01*
X96940971Y-69506187D01*
X96847508Y-69522247D01*
X96743755Y-69540075D01*
X96743754Y-69540075D01*
X96740910Y-69540564D01*
X96738205Y-69541562D01*
X96738201Y-69541563D01*
X96676094Y-69564476D01*
X96550463Y-69610824D01*
X96376010Y-69714612D01*
X96343683Y-69742962D01*
X96337039Y-69748789D01*
X96291380Y-69764288D01*
X96248134Y-69742962D01*
X96232500Y-69701423D01*
X96232500Y-69430290D01*
X96250952Y-69385742D01*
X96441742Y-69194952D01*
X96486290Y-69176500D01*
X97750084Y-69176499D01*
X97903066Y-69176499D01*
X97906096Y-69175896D01*
X97906100Y-69175896D01*
X97971214Y-69162945D01*
X97971216Y-69162944D01*
X97977301Y-69161734D01*
X97989201Y-69153783D01*
X98056321Y-69108934D01*
X98061484Y-69105484D01*
X98075892Y-69083921D01*
X98114286Y-69026462D01*
X98114287Y-69026460D01*
X98117734Y-69021301D01*
X98132500Y-68947067D01*
X98132499Y-67196934D01*
X98131896Y-67193899D01*
X98118945Y-67128786D01*
X98118944Y-67128784D01*
X98117734Y-67122699D01*
X98090939Y-67082597D01*
X98064934Y-67043679D01*
X98061484Y-67038516D01*
X98057926Y-67036139D01*
X98039851Y-66992500D01*
X98058303Y-66947952D01*
X98102851Y-66929500D01*
X104200750Y-66929500D01*
X104245298Y-66947952D01*
G37*
%TD.AperFunction*%
%TA.AperFunction,NonConductor*%
G36*
X103865317Y-69739952D02*
G01*
X103883769Y-69784500D01*
X103862308Y-69831866D01*
X103852501Y-69840467D01*
X103843392Y-69848455D01*
X103717720Y-70007869D01*
X103623203Y-70187515D01*
X103622347Y-70190273D01*
X103622345Y-70190277D01*
X103585664Y-70308411D01*
X103563007Y-70381378D01*
X103539148Y-70582964D01*
X103552424Y-70785522D01*
X103553133Y-70788315D01*
X103553134Y-70788319D01*
X103574813Y-70873676D01*
X103602392Y-70982269D01*
X103687377Y-71166616D01*
X103804533Y-71332389D01*
X103852291Y-71378912D01*
X103868162Y-71394373D01*
X103887196Y-71438675D01*
X103869328Y-71483461D01*
X103824201Y-71502500D01*
X103375900Y-71502500D01*
X103331352Y-71484048D01*
X103312900Y-71439500D01*
X103312900Y-69886166D01*
X103298359Y-69794355D01*
X103309615Y-69747469D01*
X103350728Y-69722276D01*
X103360583Y-69721500D01*
X103820769Y-69721500D01*
X103865317Y-69739952D01*
G37*
%TD.AperFunction*%
%TA.AperFunction,NonConductor*%
G36*
X105899048Y-66947952D02*
G01*
X105917500Y-66992500D01*
X105917500Y-71700710D01*
X105899048Y-71745258D01*
X105854500Y-71763710D01*
X105809952Y-71745258D01*
X105711735Y-71647041D01*
X105703357Y-71636667D01*
X105697396Y-71627435D01*
X105694571Y-71623060D01*
X105690478Y-71619833D01*
X105665287Y-71599974D01*
X105659741Y-71595047D01*
X105656056Y-71591362D01*
X105653948Y-71589856D01*
X105653945Y-71589853D01*
X105647440Y-71585205D01*
X105639127Y-71579265D01*
X105636785Y-71577506D01*
X105618353Y-71562976D01*
X105599442Y-71548067D01*
X105599440Y-71548066D01*
X105595353Y-71544844D01*
X105590440Y-71543119D01*
X105586993Y-71541224D01*
X105583504Y-71539515D01*
X105579266Y-71536486D01*
X105558918Y-71530401D01*
X105528709Y-71521366D01*
X105525886Y-71520448D01*
X105479894Y-71504297D01*
X105479893Y-71504297D01*
X105476149Y-71502982D01*
X105472107Y-71502632D01*
X105472069Y-71502612D01*
X105468324Y-71501806D01*
X105468545Y-71500781D01*
X105429319Y-71480404D01*
X105414780Y-71434429D01*
X105432470Y-71396449D01*
X105432345Y-71396345D01*
X105432741Y-71395869D01*
X105487497Y-71330032D01*
X105560301Y-71242496D01*
X105560303Y-71242493D01*
X105562147Y-71240276D01*
X105661334Y-71063165D01*
X105726584Y-70870945D01*
X105755712Y-70670053D01*
X105757232Y-70612000D01*
X105738658Y-70409859D01*
X105715479Y-70327672D01*
X105684341Y-70217265D01*
X105684339Y-70217260D01*
X105683557Y-70214487D01*
X105593776Y-70032428D01*
X105515707Y-69927881D01*
X105474049Y-69872094D01*
X105474047Y-69872092D01*
X105472320Y-69869779D01*
X105323258Y-69731987D01*
X105151581Y-69623667D01*
X105148903Y-69622599D01*
X105148900Y-69622597D01*
X105076977Y-69593903D01*
X105062405Y-69588089D01*
X105027867Y-69554444D01*
X105023188Y-69536980D01*
X105020960Y-69518158D01*
X105017469Y-69488659D01*
X105015213Y-69483961D01*
X105014111Y-69480167D01*
X105012859Y-69476510D01*
X105012004Y-69471374D01*
X104986953Y-69424946D01*
X104985605Y-69422301D01*
X104964495Y-69378339D01*
X104964494Y-69378338D01*
X104962780Y-69374768D01*
X104959186Y-69370492D01*
X104958957Y-69370263D01*
X104956322Y-69367140D01*
X104954483Y-69364769D01*
X104952010Y-69360186D01*
X104918438Y-69329152D01*
X104911541Y-69322777D01*
X104909757Y-69321063D01*
X104849373Y-69260679D01*
X104830921Y-69216131D01*
X104849373Y-69171583D01*
X104884881Y-69153783D01*
X104906945Y-69150584D01*
X105099165Y-69085334D01*
X105177443Y-69041496D01*
X105273755Y-68987559D01*
X105273756Y-68987558D01*
X105276276Y-68986147D01*
X105319617Y-68950101D01*
X105430123Y-68858193D01*
X105432345Y-68856345D01*
X105562147Y-68700276D01*
X105596013Y-68639805D01*
X105659921Y-68525688D01*
X105661334Y-68523165D01*
X105726584Y-68330945D01*
X105755712Y-68130053D01*
X105757232Y-68072000D01*
X105738658Y-67869859D01*
X105729848Y-67838621D01*
X105684341Y-67677265D01*
X105684339Y-67677260D01*
X105683557Y-67674487D01*
X105593776Y-67492428D01*
X105472320Y-67329779D01*
X105323258Y-67191987D01*
X105151581Y-67083667D01*
X105148903Y-67082599D01*
X105148900Y-67082597D01*
X105069739Y-67051015D01*
X105035200Y-67017369D01*
X105034569Y-66969155D01*
X105068215Y-66934616D01*
X105093084Y-66929500D01*
X105854500Y-66929500D01*
X105899048Y-66947952D01*
G37*
%TD.AperFunction*%
%TA.AperFunction,NonConductor*%
G36*
X97900048Y-71397364D02*
G01*
X97918500Y-71441912D01*
X97918500Y-72326925D01*
X97900048Y-72371473D01*
X97855500Y-72389925D01*
X97812735Y-72373187D01*
X97760066Y-72324500D01*
X97703258Y-72271987D01*
X97531581Y-72163667D01*
X97528903Y-72162599D01*
X97528900Y-72162597D01*
X97345721Y-72089516D01*
X97343039Y-72088446D01*
X97340208Y-72087883D01*
X97340205Y-72087882D01*
X97146777Y-72049407D01*
X97146776Y-72049407D01*
X97143946Y-72048844D01*
X97141067Y-72048806D01*
X97141064Y-72048806D01*
X97022647Y-72047256D01*
X96940971Y-72046187D01*
X96807829Y-72069065D01*
X96743755Y-72080075D01*
X96743754Y-72080075D01*
X96740910Y-72080564D01*
X96738205Y-72081562D01*
X96738201Y-72081563D01*
X96656382Y-72111748D01*
X96550463Y-72150824D01*
X96376010Y-72254612D01*
X96343683Y-72282962D01*
X96337039Y-72288789D01*
X96291380Y-72304288D01*
X96248134Y-72282962D01*
X96232500Y-72241423D01*
X96232500Y-71526794D01*
X96250952Y-71482246D01*
X96295500Y-71463794D01*
X96330501Y-71474412D01*
X96496314Y-71585205D01*
X96496319Y-71585208D01*
X96498720Y-71586812D01*
X96501371Y-71587951D01*
X96590543Y-71626262D01*
X96685228Y-71666942D01*
X96883216Y-71711742D01*
X96886104Y-71711855D01*
X96886108Y-71711856D01*
X96984634Y-71715727D01*
X97086053Y-71719712D01*
X97286945Y-71690584D01*
X97479165Y-71625334D01*
X97533246Y-71595047D01*
X97653755Y-71527559D01*
X97653756Y-71527558D01*
X97656276Y-71526147D01*
X97662025Y-71521366D01*
X97810123Y-71398193D01*
X97811950Y-71396674D01*
X97812345Y-71396345D01*
X97812618Y-71396674D01*
X97855500Y-71378912D01*
X97900048Y-71397364D01*
G37*
%TD.AperFunction*%
%TA.AperFunction,NonConductor*%
G36*
X102200765Y-69739952D02*
G01*
X102219217Y-69784500D01*
X102218441Y-69794355D01*
X102203900Y-69886166D01*
X102203900Y-72649834D01*
X102204289Y-72652287D01*
X102211789Y-72699645D01*
X102200533Y-72746531D01*
X102159420Y-72771724D01*
X102149565Y-72772500D01*
X102097235Y-72772500D01*
X102052687Y-72754048D01*
X102034235Y-72709500D01*
X102035011Y-72699645D01*
X102042511Y-72652287D01*
X102042900Y-72649834D01*
X102042900Y-69886166D01*
X102028359Y-69794355D01*
X102039615Y-69747469D01*
X102080728Y-69722276D01*
X102090583Y-69721500D01*
X102156217Y-69721500D01*
X102200765Y-69739952D01*
G37*
%TD.AperFunction*%
%TA.AperFunction,NonConductor*%
G36*
X103865317Y-72279952D02*
G01*
X103883769Y-72324500D01*
X103862308Y-72371866D01*
X103852501Y-72380467D01*
X103843392Y-72388455D01*
X103717720Y-72547869D01*
X103623203Y-72727515D01*
X103622346Y-72730276D01*
X103621242Y-72732941D01*
X103619600Y-72732261D01*
X103592172Y-72765250D01*
X103562830Y-72772500D01*
X103367235Y-72772500D01*
X103322687Y-72754048D01*
X103304235Y-72709500D01*
X103305011Y-72699645D01*
X103312511Y-72652287D01*
X103312900Y-72649834D01*
X103312900Y-72324500D01*
X103331352Y-72279952D01*
X103375900Y-72261500D01*
X103820769Y-72261500D01*
X103865317Y-72279952D01*
G37*
%TD.AperFunction*%
%TA.AperFunction,NonConductor*%
G36*
X100068258Y-69231952D02*
G01*
X100086710Y-69276500D01*
X100068258Y-69321048D01*
X99983441Y-69405865D01*
X99973067Y-69414243D01*
X99959460Y-69423029D01*
X99956234Y-69427121D01*
X99956233Y-69427122D01*
X99936374Y-69452313D01*
X99931447Y-69457859D01*
X99927762Y-69461544D01*
X99915665Y-69478473D01*
X99913906Y-69480815D01*
X99903644Y-69493833D01*
X99893875Y-69506225D01*
X99881244Y-69522247D01*
X99879519Y-69527160D01*
X99877624Y-69530607D01*
X99875915Y-69534096D01*
X99872886Y-69538334D01*
X99871394Y-69543323D01*
X99869102Y-69548001D01*
X99867590Y-69547260D01*
X99839930Y-69580431D01*
X99827677Y-69586674D01*
X99737074Y-69677277D01*
X99734822Y-69681697D01*
X99700637Y-69748789D01*
X99678902Y-69791445D01*
X99663900Y-69886166D01*
X99663900Y-72649834D01*
X99678902Y-72744555D01*
X99681154Y-72748974D01*
X99681155Y-72748978D01*
X99711177Y-72807899D01*
X99714961Y-72855968D01*
X99683645Y-72892633D01*
X99655044Y-72899500D01*
X99511756Y-72899500D01*
X99467208Y-72881048D01*
X99448756Y-72836500D01*
X99455623Y-72807899D01*
X99485645Y-72748978D01*
X99485646Y-72748974D01*
X99487898Y-72744555D01*
X99502900Y-72649834D01*
X99502900Y-69886166D01*
X99487898Y-69791445D01*
X99466164Y-69748789D01*
X99431978Y-69681697D01*
X99429726Y-69677277D01*
X99346352Y-69593903D01*
X99327900Y-69549355D01*
X99327900Y-69382890D01*
X99346352Y-69338342D01*
X99452742Y-69231952D01*
X99497290Y-69213500D01*
X100023710Y-69213500D01*
X100068258Y-69231952D01*
G37*
%TD.AperFunction*%
M02*
