%TF.GenerationSoftware,KiCad,Pcbnew,(6.0.9)*%
%TF.CreationDate,2022-12-08T14:47:13+01:00*%
%TF.ProjectId,UltraCIC-III,556c7472-6143-4494-932d-4949492e6b69,rev?*%
%TF.SameCoordinates,Original*%
%TF.FileFunction,Legend,Top*%
%TF.FilePolarity,Positive*%
%FSLAX46Y46*%
G04 Gerber Fmt 4.6, Leading zero omitted, Abs format (unit mm)*
G04 Created by KiCad (PCBNEW (6.0.9)) date 2022-12-08 14:47:13*
%MOMM*%
%LPD*%
G01*
G04 APERTURE LIST*
%ADD10C,0.150000*%
%ADD11C,0.120000*%
G04 APERTURE END LIST*
D10*
X97947976Y-85068609D02*
X98502628Y-85315556D01*
X98582408Y-85311982D01*
X98629561Y-85293882D01*
X98691240Y-85243155D01*
X98749345Y-85112649D01*
X98745771Y-85032869D01*
X98727671Y-84985716D01*
X98676944Y-84924037D01*
X98122291Y-84677090D01*
X98996293Y-84557996D02*
X98934613Y-84608723D01*
X98854834Y-84612297D01*
X98267554Y-84350823D01*
X98612151Y-84191495D02*
X98728362Y-83930482D01*
X98427344Y-83991931D02*
X99014623Y-84253404D01*
X99094403Y-84249830D01*
X99156082Y-84199103D01*
X99185135Y-84133850D01*
X99286819Y-83905464D02*
X98830046Y-83702095D01*
X98960552Y-83760200D02*
X98909826Y-83698521D01*
X98891725Y-83651368D01*
X98888151Y-83571589D01*
X98917204Y-83506336D01*
X99606397Y-83187678D02*
X99247505Y-83027888D01*
X99167725Y-83031462D01*
X99106046Y-83082189D01*
X99047941Y-83212696D01*
X99051515Y-83292475D01*
X99573771Y-83173152D02*
X99577345Y-83252931D01*
X99504713Y-83416064D01*
X99443034Y-83466791D01*
X99363255Y-83470365D01*
X99298001Y-83441313D01*
X99247274Y-83379633D01*
X99243700Y-83299854D01*
X99316332Y-83136721D01*
X99312758Y-83056941D01*
X99860723Y-82440840D02*
X99878823Y-82487992D01*
X99867871Y-82600399D01*
X99838818Y-82665652D01*
X99762613Y-82749005D01*
X99668307Y-82785206D01*
X99588527Y-82788780D01*
X99443495Y-82763301D01*
X99345615Y-82719723D01*
X99229635Y-82628991D01*
X99178908Y-82567311D01*
X99142707Y-82473006D01*
X99153659Y-82360599D01*
X99182712Y-82295346D01*
X99258917Y-82211993D01*
X99306070Y-82193892D01*
X100056713Y-82176253D02*
X99371554Y-81871200D01*
X100311039Y-81429414D02*
X100329139Y-81476567D01*
X100318187Y-81588973D01*
X100289134Y-81654227D01*
X100212928Y-81737580D01*
X100118623Y-81773781D01*
X100038843Y-81777355D01*
X99893810Y-81751876D01*
X99795930Y-81708297D01*
X99679950Y-81617565D01*
X99629223Y-81555886D01*
X99593023Y-81461580D01*
X99603975Y-81349174D01*
X99633028Y-81283921D01*
X99709233Y-81200567D01*
X99756386Y-81182467D01*
X100246016Y-81048617D02*
X100478437Y-80526591D01*
X100884713Y-80316535D02*
X100199554Y-80011483D01*
X101029976Y-79990269D02*
X100344817Y-79685216D01*
X101175239Y-79664003D02*
X100490080Y-79358950D01*
X99525955Y-85810264D02*
X99671218Y-85483998D01*
X99692662Y-85962676D02*
X99109187Y-85429237D01*
X99896030Y-85505903D01*
X100128451Y-84983877D02*
X99443292Y-84678824D01*
X100095825Y-84969350D02*
X100099399Y-85049130D01*
X100041293Y-85179637D01*
X99979614Y-85230363D01*
X99932461Y-85248464D01*
X99852682Y-85252038D01*
X99656922Y-85164880D01*
X99606195Y-85103201D01*
X99588095Y-85056048D01*
X99584521Y-84976268D01*
X99642626Y-84845762D01*
X99704305Y-84795035D01*
X100404451Y-84363971D02*
X100045558Y-84204182D01*
X99965779Y-84207756D01*
X99904099Y-84258483D01*
X99845994Y-84388989D01*
X99849568Y-84468769D01*
X100371824Y-84349445D02*
X100375398Y-84429224D01*
X100302767Y-84592357D01*
X100241088Y-84643084D01*
X100161308Y-84646658D01*
X100096055Y-84617606D01*
X100045328Y-84555926D01*
X100041754Y-84476147D01*
X100114385Y-84313014D01*
X100110811Y-84233234D01*
X100092941Y-83834336D02*
X100778100Y-84139389D01*
X100125568Y-83848863D02*
X100121994Y-83769083D01*
X100180099Y-83638577D01*
X100241778Y-83587850D01*
X100288931Y-83569749D01*
X100368711Y-83566175D01*
X100564471Y-83653333D01*
X100615198Y-83715012D01*
X100633298Y-83762165D01*
X100636872Y-83841945D01*
X100578767Y-83972451D01*
X100517087Y-84023178D01*
X100325362Y-83312310D02*
X100441573Y-83051297D01*
X100140555Y-83112746D02*
X100727834Y-83374220D01*
X100807614Y-83370646D01*
X100869293Y-83319919D01*
X100898345Y-83254666D01*
X101083613Y-82750740D02*
X101087187Y-82830520D01*
X101029082Y-82961026D01*
X100967403Y-83011753D01*
X100887623Y-83015327D01*
X100626610Y-82899117D01*
X100575884Y-82837437D01*
X100572310Y-82757658D01*
X100630415Y-82627151D01*
X100692094Y-82576424D01*
X100771874Y-82572850D01*
X100837127Y-82601903D01*
X100757117Y-82957222D01*
X101261503Y-82439000D02*
X100804730Y-82235632D01*
X100935237Y-82293737D02*
X100884510Y-82232058D01*
X100866410Y-82184905D01*
X100862836Y-82105125D01*
X100891888Y-82039872D01*
X101189332Y-81898644D02*
X101421753Y-81376618D01*
X101828029Y-81166562D02*
X101142870Y-80861509D01*
X101259081Y-80600496D01*
X101320760Y-80549769D01*
X101367913Y-80531669D01*
X101447692Y-80528095D01*
X101545572Y-80571674D01*
X101596299Y-80633353D01*
X101614399Y-80680506D01*
X101617973Y-80760286D01*
X101501763Y-81021299D01*
X102242144Y-80060831D02*
X102260244Y-80107984D01*
X102249292Y-80220390D01*
X102220240Y-80285643D01*
X102144034Y-80368997D01*
X102049728Y-80405197D01*
X101969949Y-80408771D01*
X101824916Y-80383293D01*
X101727036Y-80339714D01*
X101611056Y-80248982D01*
X101560329Y-80187303D01*
X101524128Y-80092997D01*
X101535080Y-79980591D01*
X101564133Y-79915337D01*
X101640339Y-79831984D01*
X101687492Y-79813883D01*
X102180926Y-79408068D02*
X102257131Y-79324714D01*
X102304284Y-79306614D01*
X102384064Y-79303040D01*
X102481943Y-79346619D01*
X102532670Y-79408298D01*
X102550771Y-79455451D01*
X102554345Y-79535231D01*
X102438134Y-79796244D01*
X101752975Y-79491191D01*
X101854659Y-79262805D01*
X101916339Y-79212078D01*
X101963491Y-79193978D01*
X102043271Y-79190404D01*
X102108524Y-79219456D01*
X102159251Y-79281135D01*
X102177352Y-79328288D01*
X102180926Y-79408068D01*
X102079241Y-79636454D01*
X100839347Y-86355930D02*
X100154188Y-86050877D01*
X100415201Y-86167088D02*
X100411627Y-86087308D01*
X100469732Y-85956802D01*
X100531411Y-85906075D01*
X100578564Y-85887974D01*
X100658344Y-85884400D01*
X100854103Y-85971558D01*
X100904830Y-86033237D01*
X100922931Y-86080390D01*
X100926505Y-86160170D01*
X100868399Y-86290676D01*
X100806720Y-86341403D01*
X100629521Y-85597909D02*
X101158926Y-85638144D01*
X100774784Y-85271642D02*
X101158926Y-85638144D01*
X101293006Y-85776029D01*
X101311106Y-85823182D01*
X101314680Y-85902961D01*
X101580189Y-84691972D02*
X100895029Y-84386919D01*
X101486113Y-84376428D01*
X101098398Y-83930147D01*
X101783557Y-84235199D01*
X102059557Y-83615293D02*
X101700664Y-83455504D01*
X101620884Y-83459078D01*
X101559205Y-83509805D01*
X101501100Y-83640311D01*
X101504674Y-83720091D01*
X102026930Y-83600767D02*
X102030504Y-83680547D01*
X101957873Y-83843680D01*
X101896193Y-83894407D01*
X101816414Y-83897981D01*
X101751161Y-83868928D01*
X101700434Y-83807249D01*
X101696860Y-83727469D01*
X101769491Y-83564336D01*
X101765917Y-83484556D01*
X101748047Y-83085659D02*
X102204820Y-83289027D01*
X101813300Y-83114711D02*
X101795200Y-83067558D01*
X101791626Y-82987779D01*
X101835205Y-82889899D01*
X101896884Y-82839172D01*
X101976664Y-82835598D01*
X102335557Y-82995387D01*
X102589882Y-82248549D02*
X102607982Y-82295702D01*
X102597030Y-82408108D01*
X102567978Y-82473361D01*
X102491772Y-82556715D01*
X102397466Y-82592916D01*
X102317687Y-82596490D01*
X102172654Y-82571011D01*
X102074774Y-82527432D01*
X101958794Y-82436700D01*
X101908067Y-82375021D01*
X101871866Y-82280715D01*
X101882818Y-82168309D01*
X101911871Y-82103056D01*
X101988077Y-82019702D01*
X102035230Y-82001602D01*
X102829451Y-81886082D02*
X102767772Y-81936809D01*
X102687992Y-81940383D01*
X102100713Y-81678910D01*
X102989240Y-81527189D02*
X102927561Y-81577916D01*
X102880408Y-81596017D01*
X102800629Y-81599591D01*
X102604869Y-81512433D01*
X102554142Y-81450754D01*
X102536042Y-81403601D01*
X102532468Y-81323821D01*
X102576047Y-81225941D01*
X102637726Y-81175214D01*
X102684879Y-81157114D01*
X102764658Y-81153540D01*
X102960418Y-81240698D01*
X103011145Y-81302377D01*
X103029245Y-81349530D01*
X103032819Y-81429309D01*
X102989240Y-81527189D01*
X102895625Y-80508155D02*
X103352398Y-80711524D01*
X102764889Y-80801795D02*
X103123782Y-80961584D01*
X103203561Y-80958010D01*
X103265240Y-80907284D01*
X103308819Y-80809404D01*
X103305245Y-80729624D01*
X103287145Y-80682471D01*
X103628398Y-80091618D02*
X102943239Y-79786565D01*
X103595771Y-80077092D02*
X103599345Y-80156871D01*
X103541240Y-80287378D01*
X103479561Y-80338105D01*
X103432408Y-80356205D01*
X103352628Y-80359779D01*
X103156869Y-80272621D01*
X103106142Y-80210942D01*
X103088041Y-80163789D01*
X103084467Y-80084009D01*
X103142573Y-79953503D01*
X103204252Y-79902776D01*
%TO.C,U1*%
X101600095Y-68286380D02*
X101600095Y-69095904D01*
X101647714Y-69191142D01*
X101695333Y-69238761D01*
X101790571Y-69286380D01*
X101981047Y-69286380D01*
X102076285Y-69238761D01*
X102123904Y-69191142D01*
X102171523Y-69095904D01*
X102171523Y-68286380D01*
X103171523Y-69286380D02*
X102600095Y-69286380D01*
X102885809Y-69286380D02*
X102885809Y-68286380D01*
X102790571Y-68429238D01*
X102695333Y-68524476D01*
X102600095Y-68572095D01*
%TO.C,U2*%
X92202095Y-67778380D02*
X92202095Y-68587904D01*
X92249714Y-68683142D01*
X92297333Y-68730761D01*
X92392571Y-68778380D01*
X92583047Y-68778380D01*
X92678285Y-68730761D01*
X92725904Y-68683142D01*
X92773523Y-68587904D01*
X92773523Y-67778380D01*
X93202095Y-67873619D02*
X93249714Y-67826000D01*
X93344952Y-67778380D01*
X93583047Y-67778380D01*
X93678285Y-67826000D01*
X93725904Y-67873619D01*
X93773523Y-67968857D01*
X93773523Y-68064095D01*
X93725904Y-68206952D01*
X93154476Y-68778380D01*
X93773523Y-68778380D01*
D11*
%TO.C,U1*%
X98128400Y-74168000D02*
X98128400Y-76918000D01*
X103578400Y-71418000D02*
X103318400Y-71418000D01*
X98128400Y-71418000D02*
X98388400Y-71418000D01*
X103578400Y-74168000D02*
X103578400Y-76918000D01*
X103578400Y-74168000D02*
X103578400Y-71418000D01*
X98388400Y-76918000D02*
X98388400Y-78568000D01*
X98128400Y-76918000D02*
X98388400Y-76918000D01*
X103578400Y-76918000D02*
X103318400Y-76918000D01*
X98128400Y-74168000D02*
X98128400Y-71418000D01*
%TO.C,U2*%
X99838000Y-66742000D02*
G75*
G03*
X101838000Y-66742000I1000000J0D01*
G01*
X103488000Y-77022000D02*
X103488000Y-66742000D01*
X98188000Y-77022000D02*
X103488000Y-77022000D01*
X103488000Y-66742000D02*
X101838000Y-66742000D01*
X99838000Y-66742000D02*
X98188000Y-66742000D01*
X98188000Y-66742000D02*
X98188000Y-77022000D01*
%TD*%
M02*
