%TF.GenerationSoftware,KiCad,Pcbnew,(6.0.0)*%
%TF.CreationDate,2022-05-17T06:49:19+02:00*%
%TF.ProjectId,UltraCIC-III,556c7472-6143-4494-932d-4949492e6b69,rev?*%
%TF.SameCoordinates,Original*%
%TF.FileFunction,Legend,Bot*%
%TF.FilePolarity,Positive*%
%FSLAX46Y46*%
G04 Gerber Fmt 4.6, Leading zero omitted, Abs format (unit mm)*
G04 Created by KiCad (PCBNEW (6.0.0)) date 2022-05-17 06:49:19*
%MOMM*%
%LPD*%
G01*
G04 APERTURE LIST*
%ADD10C,0.150000*%
%ADD11C,0.120000*%
G04 APERTURE END LIST*
D10*
X102401714Y-79137380D02*
X103068380Y-79375476D01*
X102401714Y-79613571D01*
X102163619Y-79946904D02*
X102116000Y-79994523D01*
X102068380Y-80089761D01*
X102068380Y-80327857D01*
X102116000Y-80423095D01*
X102163619Y-80470714D01*
X102258857Y-80518333D01*
X102354095Y-80518333D01*
X102496952Y-80470714D01*
X103068380Y-79899285D01*
X103068380Y-80518333D01*
X102068380Y-81137380D02*
X102068380Y-81232619D01*
X102116000Y-81327857D01*
X102163619Y-81375476D01*
X102258857Y-81423095D01*
X102449333Y-81470714D01*
X102687428Y-81470714D01*
X102877904Y-81423095D01*
X102973142Y-81375476D01*
X103020761Y-81327857D01*
X103068380Y-81232619D01*
X103068380Y-81137380D01*
X103020761Y-81042142D01*
X102973142Y-80994523D01*
X102877904Y-80946904D01*
X102687428Y-80899285D01*
X102449333Y-80899285D01*
X102258857Y-80946904D01*
X102163619Y-80994523D01*
X102116000Y-81042142D01*
X102068380Y-81137380D01*
X102163619Y-81851666D02*
X102116000Y-81899285D01*
X102068380Y-81994523D01*
X102068380Y-82232619D01*
X102116000Y-82327857D01*
X102163619Y-82375476D01*
X102258857Y-82423095D01*
X102354095Y-82423095D01*
X102496952Y-82375476D01*
X103068380Y-81804047D01*
X103068380Y-82423095D01*
X102163619Y-82804047D02*
X102116000Y-82851666D01*
X102068380Y-82946904D01*
X102068380Y-83185000D01*
X102116000Y-83280238D01*
X102163619Y-83327857D01*
X102258857Y-83375476D01*
X102354095Y-83375476D01*
X102496952Y-83327857D01*
X103068380Y-82756428D01*
X103068380Y-83375476D01*
X102068380Y-83994523D02*
X102068380Y-84089761D01*
X102116000Y-84185000D01*
X102163619Y-84232619D01*
X102258857Y-84280238D01*
X102449333Y-84327857D01*
X102687428Y-84327857D01*
X102877904Y-84280238D01*
X102973142Y-84232619D01*
X103020761Y-84185000D01*
X103068380Y-84089761D01*
X103068380Y-83994523D01*
X103020761Y-83899285D01*
X102973142Y-83851666D01*
X102877904Y-83804047D01*
X102687428Y-83756428D01*
X102449333Y-83756428D01*
X102258857Y-83804047D01*
X102163619Y-83851666D01*
X102116000Y-83899285D01*
X102068380Y-83994523D01*
X102068380Y-85232619D02*
X102068380Y-84756428D01*
X102544571Y-84708809D01*
X102496952Y-84756428D01*
X102449333Y-84851666D01*
X102449333Y-85089761D01*
X102496952Y-85185000D01*
X102544571Y-85232619D01*
X102639809Y-85280238D01*
X102877904Y-85280238D01*
X102973142Y-85232619D01*
X103020761Y-85185000D01*
X103068380Y-85089761D01*
X103068380Y-84851666D01*
X103020761Y-84756428D01*
X102973142Y-84708809D01*
X103068380Y-86232619D02*
X103068380Y-85661190D01*
X103068380Y-85946904D02*
X102068380Y-85946904D01*
X102211238Y-85851666D01*
X102306476Y-85756428D01*
X102354095Y-85661190D01*
X102068380Y-87089761D02*
X102068380Y-86899285D01*
X102116000Y-86804047D01*
X102163619Y-86756428D01*
X102306476Y-86661190D01*
X102496952Y-86613571D01*
X102877904Y-86613571D01*
X102973142Y-86661190D01*
X103020761Y-86708809D01*
X103068380Y-86804047D01*
X103068380Y-86994523D01*
X103020761Y-87089761D01*
X102973142Y-87137380D01*
X102877904Y-87185000D01*
X102639809Y-87185000D01*
X102544571Y-87137380D01*
X102496952Y-87089761D01*
X102449333Y-86994523D01*
X102449333Y-86804047D01*
X102496952Y-86708809D01*
X102544571Y-86661190D01*
X102639809Y-86613571D01*
%TO.C,J2*%
X104981333Y-87634380D02*
X104981333Y-88348666D01*
X105028952Y-88491523D01*
X105124190Y-88586761D01*
X105267047Y-88634380D01*
X105362285Y-88634380D01*
X104552761Y-87729619D02*
X104505142Y-87682000D01*
X104409904Y-87634380D01*
X104171809Y-87634380D01*
X104076571Y-87682000D01*
X104028952Y-87729619D01*
X103981333Y-87824857D01*
X103981333Y-87920095D01*
X104028952Y-88062952D01*
X104600380Y-88634380D01*
X103981333Y-88634380D01*
%TO.C,J1*%
X97361333Y-65194380D02*
X97361333Y-65908666D01*
X97408952Y-66051523D01*
X97504190Y-66146761D01*
X97647047Y-66194380D01*
X97742285Y-66194380D01*
X96361333Y-66194380D02*
X96932761Y-66194380D01*
X96647047Y-66194380D02*
X96647047Y-65194380D01*
X96742285Y-65337238D01*
X96837523Y-65432476D01*
X96932761Y-65480095D01*
D11*
%TO.C,J2*%
X103318000Y-87182000D02*
X104648000Y-87182000D01*
X103318000Y-85852000D02*
X103318000Y-87182000D01*
X103318000Y-84582000D02*
X105978000Y-84582000D01*
X105978000Y-84582000D02*
X105978000Y-66742000D01*
X103318000Y-84582000D02*
X103318000Y-66742000D01*
X103318000Y-66742000D02*
X105978000Y-66742000D01*
%TO.C,J1*%
X98358000Y-87182000D02*
X95698000Y-87182000D01*
X98358000Y-69342000D02*
X98358000Y-87182000D01*
X95698000Y-69342000D02*
X95698000Y-87182000D01*
X98358000Y-69342000D02*
X95698000Y-69342000D01*
X98358000Y-68072000D02*
X98358000Y-66742000D01*
X98358000Y-66742000D02*
X97028000Y-66742000D01*
%TD*%
M02*
